<svg width="104" height="109" viewBox="0 0 104 109" fill="none" xmlns="http://www.w3.org/2000/svg">
<path d="M84.7331 61.1148C80.5345 59.6843 72.9046 60.8032 69.9475 60.7253C64.989 62.7634 66.5001 64.6078 67.8755 65.2752C70.4009 66.1423 75.8895 69.0904 80.5025 69.6109C85.1155 70.1314 90.0942 69.577 90.9403 67.8778C91.7864 66.1786 88.9316 62.5453 84.7331 61.1148Z" fill="white" stroke="#054169" stroke-width="3.55829" stroke-linecap="round"/>
<path d="M76.0298 70.5999C76.0298 70.5999 75.7498 80.6899 74.9298 82.5999C74.1098 84.5099 66.2498 86.66 64.9298 87.7299C63.6098 88.7999 62.4498 89.19 62.2898 91.68C62.1298 94.17 61.7198 96.8 59.9698 96.46C58.2198 96.12 55.4898 94.16 55.6698 90.02C55.1998 88.79 56.4998 85.86 51.1098 86.93C50.2388 87.1029 49.8498 87.6399 49.0098 88.3099C48.1698 88.9799 47.4598 90.99 47.0098 92.46C46.5598 93.93 46.5598 95.6 44.8598 96.02C44.1831 96.2677 43.4398 96.2635 42.766 96.0083C42.0921 95.753 41.5326 95.2638 41.1898 94.6299C40.4398 93.3099 40.6098 90.79 40.4398 89.55C40.4398 86.93 31.8298 87.1699 30.3898 85.8099C28.9498 84.4499 26.6898 81.2 26.3198 78.74C25.9498 76.28 25.7998 69.9399 25.7998 69.9399C25.7998 69.9399 51.9498 75.3399 76.0298 70.5999Z" fill="#EF7725"/>
<path d="M56.5 93.5C56.1 93.1 56 89.6667 56 88C56.4 87.6 61.1667 87.5 63.5 87.5C63.3333 88.6667 62.9 91.2 62.5 92C62.1 92.8 60.3333 94.6667 59.5 95.5C58.6667 95 56.9 93.9 56.5 93.5Z" fill="#AD5418" stroke="black"/>
<path d="M76.1503 69.1101C76.1503 69.1101 76.1503 62 77.38 58.5C77.38 58.5 77.3804 55.5699 77.3802 54C76.2402 55.25 78.7003 48.8301 77.3803 47.5101C76.0603 46.1901 77.6203 45.7401 77.3803 42.8701C77.1403 40.0001 77.6803 30.5501 73.3803 26.7101C67.2209 21.2099 59.1953 18.2664 50.9403 18.4801C40.1203 18.5901 31.5703 23.0801 29.2803 25.2001C26.9902 27.3201 24.7503 29.6801 24.1203 31.9101C23.2331 34.4163 22.989 37.1051 23.4103 39.7301C24.0003 42.9301 23.2003 45.49 23.4103 47C23.6203 48.51 23.7302 51.4301 23.7302 51.4301C24.4003 57.5 24.1203 55.5 24.4003 60.8601C25.3203 63.5301 24.6802 66.8601 25.8302 68.3701C26.9802 69.8801 28.9102 70.0701 29.7702 70.3701C30.6302 70.6701 73.3302 75.4401 76.1702 69.0801" fill="white"/>
<path d="M76.6103 63.3499C76.1703 68.9899 77.0007 74.6699 75.2503 80.2699C73.5 85.8699 67.8391 84.7004 64.1304 88.4599C62.1024 90.2724 62.6174 92.5143 61 94.5799C60.01 95.8499 58.5403 95.7199 57.4103 94.5799C56.3684 93.3364 55.9431 91.1313 56 89.5099C56 86.9798 51.3201 85.7232 48.9104 89.5099C48.4468 90.4692 48.1686 91.5074 48.0903 92.5699C47.919 93.6927 47.4137 94.738 46.6403 95.5699C46.2452 95.982 45.7427 96.2752 45.1895 96.4166C44.6364 96.558 44.0547 96.5418 43.5103 96.3699C42.942 96.0907 42.4576 95.6661 42.1064 95.1392C41.7551 94.6123 41.5495 94.0019 41.5103 93.3699C41.4444 92.1175 41.4444 90.8624 41.5103 89.6099C41.5346 88.8547 41.3327 88.1095 40.9303 87.4699C40.3103 86.6199 31.3103 86.3899 30.4603 85.8699C29.6595 85.3317 28.9786 84.6338 28.4603 83.8199C27.3392 82.1304 24.1503 67 24.1503 56.0699C24.1503 50 22.8103 40.2599 23.2903 35.4599C24.4503 23.9299 39.1503 19.1599 49.0003 18.5999C59.3003 18.0099 73.5903 21.0999 76.1603 32.6599C77.1103 36.9599 77.2103 41.5299 77.6403 45.9099C77.8499 48.0469 76.6316 62.3223 76.6103 63.3499Z" stroke="#054169" stroke-width="3" stroke-miterlimit="10"/>
<path d="M75.29 70.98C59.2978 73.2459 43.0443 72.9081 27.1601 69.98L24.5 69" stroke="#054169" stroke-width="3" stroke-miterlimit="10"/>
<path d="M59.0456 51.1446C60.6114 51.0488 64.2031 52.3218 63.0026 54.6398C62.6441 55.2319 62.0904 55.6717 61.4555 55.8683C59.6882 56.548 55.899 56.3761 55.8461 53.7592C55.8616 53.3749 55.9682 52.9947 56.1562 52.6529C56.3443 52.311 56.608 52.0182 56.9234 51.8009C57.5707 51.3825 58.3058 51.1551 59.0456 51.1446Z" fill="#EF7725"/>
<path d="M74.3902 44.4535C74.8305 44.1897 75.3211 44.0366 75.8249 44.0058C76.3287 43.975 76.8324 44.0673 77.2979 44.2758C77.9379 44.6143 78.4469 45.1817 78.7368 45.8797C79.0266 46.5776 79.0789 47.362 78.8847 48.0969C78.7149 48.5443 78.4452 48.9404 78.099 49.2502C77.7528 49.5601 77.3408 49.7744 76.8991 49.8742C76.2203 50.0634 75.5048 50.0387 74.8388 49.8031C74.3845 49.6211 73.9823 49.3156 73.672 48.9167C73.3617 48.5177 73.154 48.0392 73.0693 47.5282C72.9293 46.8936 73.0028 46.2266 73.277 45.6443C73.5288 45.1376 73.9165 44.7229 74.3902 44.4535Z" fill="#054169"/>
<path d="M61.4349 43.2881C62.1462 42.8914 62.9435 42.6745 63.7577 42.6562C64.5719 42.6378 65.3782 42.8187 66.1066 43.1829C66.5254 43.4196 66.8882 43.7439 67.1701 44.1338C67.452 44.5236 67.6463 44.9698 67.7398 45.4417C67.8333 45.9136 67.8237 46.4001 67.7118 46.868C67.5998 47.3359 67.3881 47.7741 67.0912 48.1525C66.4522 48.8493 65.5907 49.3019 64.6544 49.4327C63.8545 49.5794 63.029 49.4788 62.2878 49.1444C61.7685 48.8741 61.3162 48.4912 60.9638 48.0237C60.6115 47.5561 60.3681 47.0158 60.2513 46.4421C60.1064 45.8601 60.1186 45.2501 60.2865 44.6743C60.4889 44.0884 60.8969 43.5959 61.4349 43.2881Z" fill="#054169"/>
<path d="M73.0058 54.1825C72.3368 54.9936 71.4277 55.572 70.4093 55.8346C69.72 56.0224 68.9969 56.0507 68.295 55.9173C67.5931 55.7839 66.9309 55.4923 66.3587 55.0648C65.398 54.2776 64.4372 52.4699 65.3979 51.3541C65.5323 51.1845 65.7214 51.0669 65.9329 51.0211C66.1444 50.9754 66.3653 51.0044 66.5578 51.1032C66.9732 51.3714 66.9905 51.9682 67.103 52.4353C67.2569 52.9685 67.5604 53.4466 67.9776 53.8129C68.3948 54.1793 68.9082 54.4186 69.4572 54.5025C70.1074 54.5927 70.7699 54.5098 71.3777 54.2623C71.9856 54.0147 72.5173 53.6113 72.9193 53.0926C73.0437 52.9098 73.1509 52.7158 73.2395 52.5131C73.3261 52.3315 73.5251 51.4838 73.8194 51.5703C74.356 51.7433 73.5425 53.3002 73.3694 53.5943C73.2625 53.7989 73.141 53.9955 73.0058 54.1825Z" fill="#054169"/>
<rect width="10.8742" height="16.0754" transform="matrix(-0.980997 -0.194021 -0.194021 0.980997 80.0253 17.8638)" fill="#F3EA09"/>
<path d="M80.7573 36.6426C81.9259 38.6031 81.0581 39.936 80.0693 39.7404C63.9202 40.9705 45.7737 35.3722 29.8667 32.4194C17.788 30.1773 18.4396 31.0084 19.9228 28.1501C20.9391 26.1917 23.8522 27.7854 27.7087 24.8274C31.3462 19.6557 30.0532 11.7283 39.8211 9.46186C46.3697 7.94239 48.2034 7.89611 54.0202 8.82333C56.7005 9.3534 63.7576 10.139 70.1559 15.4615C77.5811 21.6381 72.8798 28.3734 75.3956 32.6879C77.9114 37.0023 79.5887 34.682 80.7573 36.6426Z" fill="#F3EA09" stroke="#888308" stroke-width="3" stroke-linecap="round"/>
<path d="M24.5619 26.8497C31.1037 28.0291 37.6621 29.1657 44.1953 30.3891C48.3513 31.1674 52.7133 31.8803 56.9309 32.3234C63.9652 33.0623 71.3669 34.2772 78.2839 35.5242" stroke="#888308" stroke-width="3" stroke-linecap="round"/>
<rect width="12" height="13" transform="matrix(-0.980997 -0.194021 -0.194021 0.980997 76.2483 10.1614)" fill="#F3EA09"/>
<path d="M68.0169 10.426C68.0133 10.609 68.0004 10.7769 67.9734 10.9136C67.9166 11.2005 67.9285 10.8719 68.0169 10.426Z" fill="#F3EA09"/>
<path d="M61.3574 21.2448C62.0957 17.5118 62.0223 13.6792 62.7551 9.97394C63.0065 8.70287 63.3653 8.66026 64.462 8.23303C64.994 8.02578 65.8534 8.00437 66.3726 8.26449C66.5727 8.3647 67.9228 8.78612 67.9359 8.94317C67.9815 9.49177 68.0726 10.4119 67.9734 10.9136C67.8565 11.5045 68.0307 9.48408 68.5651 9.2062C70.1629 8.37542 72.2942 9.50963 72.0135 11.5048C71.8431 12.7157 72.3965 10.6191 72.4706 10.2442C72.6244 9.46669 73.9802 9.81529 74.4982 9.91776C75.0961 10.036 75.275 10.3113 75.479 10.9188C75.6859 11.5354 75.4144 12.3761 75.4679 13.0182C75.5305 13.7701 75.2905 15.0244 75.1471 15.7492C74.9493 16.7493 74.7515 17.7494 74.5537 18.7496C74.2473 20.2991 74.6653 26.8764 74.7402 30.9069" stroke="#888308" stroke-width="3" stroke-linecap="round"/>
<path d="M77.4024 34.8892C77.4956 30.1158 78.3724 24.6905 79.2944 19.8475C79.5068 18.7319 78.7577 17.6584 77.6358 17.4823L75.1216 17.0877" stroke="#888308" stroke-width="3" stroke-linecap="round"/>
<path d="M54.2785 31.8993C54.9095 28.7092 55.3344 25.83 55.854 22.0724C56.3736 18.3148 56.2983 17.8874 56.5216 14.6467" stroke="#888308" stroke-width="3" stroke-linecap="round"/>
<path d="M56.6245 77.4548C59.6431 76.7933 62.616 76.06 65.6368 75.3405C68.2222 74.7248 70.8359 74.1336 73.3356 73.2359C74.7842 72.7157 76.9379 72.4982 77.7279 70.9253C78.009 70.3655 78.0829 69.5602 77.7285 69.1172C76.7229 67.8602 75.7293 67.9957 74.387 68.106C70.3074 68.4411 66.6405 70.8281 62.6727 71.6819C59.5087 72.3628 56.2597 73.0506 52.992 73.1781C48.333 73.3599 43.6608 73.792 39.0428 74.3077C36.4519 74.5969 33.677 74.6064 31.1357 75.1083C30.3241 75.2686 29.4592 75.5768 29.2149 76.2748L29.2073 76.2963C28.8562 77.2992 28.7042 77.7331 29.689 78.5394C29.9207 78.7292 30.1362 79.0367 30.4495 79.1464C31.3916 79.4761 32.5224 79.361 33.5855 79.5383C35.8716 79.9195 38.3437 79.6349 40.6205 79.5349C46.0735 79.2956 51.3252 78.616 56.6245 77.4548Z" fill="#985E07" stroke="#684107" stroke-width="3" stroke-linecap="round"/>
<path d="M38.5831 83.644C38.5831 84.5611 38.247 85.7458 37.9464 86.6186C36.6922 90.2599 25.7448 88.0974 23.3678 87.2348C20.6808 86.368 21.1294 83.0535 20.6014 80.7544C20.1626 78.8434 19.6134 76.4895 19.6134 74.529C19.6134 73.3289 19.5503 71.5825 20.6892 70.3964C22.161 69.303 24.2368 66.5825 26.2331 66.5825C29.6353 66.5825 32.9385 66.965 36.3107 66.965C37.8109 66.965 41.2684 67.2549 41.5361 69.0684C41.7695 70.649 37.7152 73.1059 36.5083 74.0403C35.2929 74.9812 38.5831 82.2962 38.5831 83.644Z" fill="#DFAF67" stroke="#705834" stroke-width="3" stroke-linecap="round"/>
<rect x="13.9952" y="62.2354" width="6" height="15.0785" rx="3" transform="rotate(-7.95596 13.9952 62.2354)" fill="#4FC978" stroke="#266D3E" stroke-width="2"/>
<rect x="17.9371" y="76.0724" width="2.93903" height="15.0785" rx="1.46951" transform="rotate(-7.95596 17.9371 76.0724)" fill="#B6B6B6" stroke="#404040" stroke-width="2"/>
<path d="M20.9845 84.2734C18.2705 84.2734 15 83.3195 15 80.0399V76.6043C15 75.3583 15.9538 75.2784 17.3753 75.4052C21.4484 74.8586 30.2431 73.6065 30.3603 73.8115C31.7129 76.1786 31.5801 78.451 32.2554 80.8821C32.4869 81.7155 32.59 83.6022 31.9561 84.2734C30.6667 85.6386 26.5569 83.7094 25.5948 82.9878L24.1763 82.0825C23.6021 82.9945 23.1453 83.4207 22.4578 83.7449C22.0077 84.0665 21.4981 84.2259 20.9845 84.2734Z" fill="#DFAF67"/>
<path d="M20.9845 84.2734C18.2705 84.2734 15 83.3195 15 80.0399C15 78.8947 15 77.7495 15 76.6043C15 74.5633 17.5592 75.6512 20.5412 75.6512C23.5233 75.6512 24.0503 74.5827 23.3783 75.0084C25.0503 82.079 23.0503 84.0826 20.9845 84.2734ZM20.9845 84.2734C22.6607 83.7495 23.2733 83.5166 24.1763 82.0825C24.1763 82.0825 24.1763 82.0825 25.5948 82.9878C26.5569 83.7094 30.6667 85.6386 31.9561 84.2734C32.59 83.6022 32.4869 81.7155 32.2554 80.8821C31.5801 78.451 31.7129 76.1786 30.3603 73.8115C30.2111 73.5505 15.9963 75.6513 15.3675 75.6513" stroke="#705834" stroke-width="3" stroke-linecap="round"/>
<path d="M91.5769 48.8139C94.0613 48.8139 95.781 51.2954 94.9087 53.6216L88.653 70.3034C88.1322 71.6923 86.8045 72.6123 85.3212 72.6123H77.47C75.0694 72.6123 73.3576 70.284 74.0736 67.9927L79.2867 51.3108C79.7509 49.8253 81.1267 48.8139 82.683 48.8139H91.5769Z" fill="#505050" stroke="#054169" stroke-width="2.37219"/>
<path d="M93.8653 53.0259C94.1561 52.2505 93.5829 51.4233 92.7548 51.4233H82.8843C82.3655 51.4233 81.9069 51.7605 81.7522 52.2556L76.563 68.861C76.3244 69.6247 76.895 70.4008 77.6951 70.4008H86.5278C87.0222 70.4008 87.4647 70.0941 87.6383 69.6312L93.8653 53.0259Z" fill="black"/>
<path d="M87.7206 60.9506C93.2485 60.8488 95.9431 68.7923 89.5522 69.5842C82.2149 70.4935 81.0639 61.0732 87.7206 60.9506Z" fill="white" stroke="#054169" stroke-width="2.37219"/>
<path d="M85.0724 54.1311C85.3954 53.2752 84.7561 52.3625 83.8413 52.3737C83.2882 52.3805 82.8 52.7369 82.6251 53.2617L81.7391 55.9197C81.4706 56.7252 82.0701 57.557 82.9192 57.557C83.4368 57.557 83.9003 57.2366 84.083 56.7524L85.0724 54.1311Z" fill="#363636"/>
<circle cx="0.862003" cy="0.862003" r="0.862003" transform="matrix(-1 0 0 1 84.7101 52.8025)" fill="#A9A9A9"/>
<path d="M38.5332 70.8843C37.7617 66.6873 39.5218 59.7908 39.7689 57.0175C42.0275 52.7931 43.4358 54.565 43.8577 55.979C44.3274 58.5048 46.2528 64.2033 46.2066 68.608C46.1604 73.0128 45.1613 77.5474 43.6267 78.0027C42.092 78.4579 39.3048 75.0813 38.5332 70.8843Z" fill="white" stroke="#054169" stroke-width="3" stroke-linecap="round"/>
<path d="M33.6879 56.5289C31.6879 54.9289 34.5212 50.5289 36.1879 48.5289C44.1878 44.5289 51.188 49.0288 50.188 54.5288C49.188 60.0288 36.1879 58.5289 33.6879 56.5289Z" fill="white"/>
<path d="M68 86C67.2225 86.0955 64.4877 87.1572 63.6816 87.2266C57.6927 87.4345 56.9999 86 51.6265 87.2266" stroke="#054169" stroke-width="3" stroke-linecap="round"/>
<path d="M62.1187 14.3375C61.3813 14.3375 58.9223 14.3669 56.4611 13.9334C54 13.5 53.6816 13.1008 52.0908 13.0504C50.5 13 49.2925 14.6329 48.7831 15.5499C48.1819 16.632 47.4887 17.5963 46.553 18.4385C44.4036 20.373 40.6601 19.8402 37.8722 19.9951C36.5219 20.0701 35.1461 21.1303 34.5046 22.285C33.6801 23.7691 33.5 27.5 33.5617 26.7302" stroke="#888308" stroke-width="3" stroke-linecap="round"/>
</svg>
