<svg width="104" height="109" viewBox="0 0 104 109" fill="none" xmlns="http://www.w3.org/2000/svg">
<path d="M85.3257 61.5972C84.449 57.0882 81.2914 55.0579 80.2828 53.423C79.2838 57.0877 77.7073 65.1254 79.3929 67.9585C80.4476 69.5604 83.4799 77.2402 84.6665 75.9679C85.8531 74.6956 86.2025 66.1062 85.3257 61.5972Z" fill="white" stroke="#054169" stroke-width="3" stroke-linecap="round"/>
<path d="M17.0391 43.4124C20.9278 45.1697 25.5925 50.5455 27.7308 52.3288C29.9154 56.5919 27.6569 56.7397 26.2546 56.2807C23.9112 55.2276 18.1311 53.563 14.5376 51.0153C10.9441 48.4676 7.78681 45.0629 8.28709 43.5423C8.78738 42.0217 13.1503 41.655 17.0391 43.4124Z" fill="white" stroke="#054169" stroke-width="3" stroke-linecap="round"/>
<path d="M27.9702 70.5999C27.9702 70.5999 28.2502 80.6899 29.0702 82.5999C29.8902 84.5099 33.7502 86.66 35.0702 87.7299C36.3902 88.7999 37.5502 89.19 37.7102 91.68C37.8702 94.17 38.2802 96.8 40.0302 96.46C41.7802 96.12 44.5102 94.16 44.3302 90.02C44.8002 88.79 47.5002 85.86 52.8902 86.93C58.2802 88 61.1502 87.6399 61.9902 88.3099C62.8302 88.9799 63.5402 90.99 63.9902 92.46C64.4402 93.93 64.4402 95.6 66.1402 96.02C66.8169 96.2677 67.5602 96.2635 68.234 96.0083C68.9079 95.753 69.4674 95.2638 69.8102 94.6299C70.5602 93.3099 70.3902 90.79 70.5602 89.55C70.7302 88.31 72.1702 87.1699 73.6102 85.8099C75.0502 84.4499 77.3102 81.2 77.6802 78.74C78.0502 76.28 78.2002 69.9399 78.2002 69.9399C78.2002 69.9399 52.0502 75.3399 27.9702 70.5999Z" fill="#EF7725"/>
<path d="M27.8497 69.1101C27.8497 69.1101 27.8497 62 26.62 58.5C26.62 58.5 26.6196 55.5699 26.6198 54C27.7598 55.25 25.2997 48.8301 26.6197 47.5101C27.9397 46.1901 26.3797 45.7401 26.6197 42.8701C26.8597 40.0001 26.3197 30.5501 30.6197 26.7101C36.7791 21.2099 44.8047 18.2664 53.0597 18.4801C63.8797 18.5901 72.4297 23.0801 74.7197 25.2001C77.0098 27.3201 79.2497 29.6801 79.8797 31.9101C80.7669 34.4163 81.011 37.1051 80.5897 39.7301C79.9997 42.9301 80.7997 45.49 80.5897 47C80.3797 48.51 80.2698 51.4301 80.2698 51.4301C79.5997 57.5 79.8797 55.5 79.5997 60.8601C78.6797 63.5301 79.3198 66.8601 78.1698 68.3701C77.0198 69.8801 75.0898 70.0701 74.2298 70.3701C73.3698 70.6701 30.6698 75.4401 27.8298 69.0801" fill="white"/>
<path d="M29.8897 84.4799C30.1066 84.7758 30.3584 85.0444 30.6397 85.2799C32.1597 86.5599 34.4096 86.9799 35.8696 88.4599C36.8277 89.3162 37.4483 90.4865 37.6196 91.7599C37.7896 93.0999 37.4997 94.6199 38.3297 95.6799C39.3197 96.9499 41.4597 96.7199 42.5897 95.5799C43.6316 94.3364 44.1766 92.7513 44.1197 91.1299C44.2197 88.5199 45.4697 87.5999 48.0097 87.2999C51.669 86.8732 55.3693 86.9438 59.0097 87.5099C60.5497 87.7499 62.2496 88.1899 63.0896 89.5099C63.5532 90.4692 63.8314 91.5074 63.9097 92.5699C64.081 93.6927 64.5863 94.738 65.3597 95.5699C65.7548 95.982 66.2573 96.2752 66.8105 96.4166C67.3636 96.558 67.9453 96.5418 68.4897 96.3699C69.058 96.0907 69.5424 95.6661 69.8936 95.1392C70.2449 94.6123 70.4505 94.0019 70.4897 93.3699C70.5556 92.1175 70.5556 90.8624 70.4897 89.6099C70.4654 88.8547 70.6673 88.1095 71.0697 87.4699C71.6897 86.6199 72.6897 86.3899 73.5397 85.8699C74.3405 85.3317 75.0214 84.6338 75.5397 83.8199C76.6608 82.1304 79.8497 67 79.8497 56.0699C79.8497 50 81.1897 40.2599 80.7097 35.4599C79.5497 23.9299 64.8497 19.1599 54.9997 18.5999C44.6997 18.0099 30.4097 21.0999 27.8397 32.6599C26.8897 36.9599 26.7897 41.5299 26.3597 45.9099C26.1501 48.0469 27.3684 62.3223 27.3897 63.3499C27.8297 68.9899 28.283 74.6299 28.7497 80.2699C28.7406 81.7507 29.1347 83.206 29.8897 84.4799Z" stroke="#054169" stroke-width="3" stroke-miterlimit="10"/>
<path d="M28.71 70.98C44.7022 73.2459 60.9557 72.9081 76.8399 69.98L79.5 69" stroke="#054169" stroke-width="3" stroke-miterlimit="10"/>
<path d="M35.0701 53.0801C34.9881 53.6654 35.0968 54.2615 35.3801 54.7801C35.5415 55.0153 35.7449 55.2187 35.9801 55.3801C36.6464 55.8148 37.4068 56.0842 38.1982 56.1659C38.9895 56.2477 39.789 56.1394 40.5301 55.8501C40.8881 55.7337 41.2256 55.5616 41.5301 55.3401C41.8114 55.122 42.042 54.8454 42.2061 54.5295C42.3701 54.2135 42.4636 53.8657 42.4801 53.5101C42.6201 49.9801 35.3301 49.5301 35.0701 53.0801Z" fill="#EF7725"/>
<path d="M68.8802 52.0699C67.6402 51.3899 64.1702 50.96 64.1802 53.18C64.2251 53.7672 64.4935 54.3148 64.9302 54.71C66.0902 55.91 69.2602 57.2499 70.4002 55.2899C70.5486 54.9931 70.6208 54.664 70.6103 54.3324C70.5999 54.0007 70.507 53.6768 70.3402 53.3899C69.9864 52.8222 69.4806 52.3649 68.8802 52.0699Z" fill="#EF7725"/>
<path d="M43.5801 41.35C43.0502 41.0531 42.4596 40.8808 41.8532 40.8461C41.2467 40.8115 40.6404 40.9154 40.0801 41.15C39.3097 41.5309 38.697 42.1694 38.3481 42.9548C37.9992 43.7403 37.9363 44.623 38.1701 45.45C38.3744 45.9535 38.6991 46.3991 39.1158 46.7478C39.5325 47.0965 40.0285 47.3376 40.5601 47.45C41.3772 47.6629 42.2384 47.6351 43.0401 47.37C43.587 47.1652 44.071 46.8213 44.4446 46.3724C44.8181 45.9235 45.0681 45.385 45.1701 44.81C45.3386 44.0959 45.2501 43.3452 44.9201 42.69C44.6169 42.1197 44.1503 41.6531 43.5801 41.35Z" fill="#054169"/>
<path d="M66.9701 42.3699C66.1559 42.3851 65.3577 42.5989 64.6449 42.9928C63.9321 43.3866 63.3263 43.9486 62.8801 44.6299C62.6373 45.0452 62.487 45.5081 62.4396 45.9868C62.3922 46.4655 62.4488 46.9489 62.6055 47.4037C62.7621 47.8586 63.0152 48.2742 63.3474 48.6222C63.6796 48.9702 64.083 49.2423 64.5301 49.4199C65.4329 49.7005 66.4052 49.6581 67.2801 49.2999C68.0451 49.0242 68.7079 48.5219 69.1801 47.8599C69.4929 47.365 69.691 46.8065 69.7602 46.2252C69.8294 45.6438 69.7679 45.0544 69.5801 44.4999C69.4124 43.9241 69.095 43.403 68.6601 42.9899C68.1904 42.5855 67.5899 42.3652 66.9701 42.3699Z" fill="#054169"/>
<path d="M49.6701 52.33C50.4432 53.2677 51.4934 53.9363 52.6701 54.24C53.4665 54.4571 54.302 54.4898 55.1129 54.3356C55.9239 54.1814 56.689 53.8443 57.3501 53.35C58.4601 52.44 59.5701 50.35 58.4601 49.06C58.3049 48.864 58.0864 48.728 57.842 48.6751C57.5977 48.6222 57.3425 48.6557 57.1201 48.77C56.6401 49.08 56.6201 49.77 56.4901 50.31C56.3123 50.9265 55.9616 51.4792 55.4796 51.9027C54.9976 52.3262 54.4044 52.6029 53.7701 52.7C53.0189 52.8042 52.2535 52.7084 51.5512 52.4222C50.8489 52.136 50.2345 51.6696 49.7701 51.07C49.6263 50.8586 49.5025 50.6343 49.4001 50.4C49.3001 50.19 49.0701 49.21 48.7301 49.31C48.1101 49.51 49.0501 51.31 49.2501 51.65C49.3736 51.8865 49.5139 52.1137 49.6701 52.33Z" fill="#054169"/>
<path d="M23.9266 29.1031C22.4119 30.7997 22.9999 32.2755 23.9999 32.2755C39.4803 36.6155 58.219 34.6444 74.2689 34.834C86.4561 34.978 85.6619 35.6669 84.7686 32.5752C84.1565 30.4568 81.0145 31.455 77.8305 27.8049C75.2859 22.0258 78.0702 14.4999 68.9998 10.3814C62.9189 7.6202 61.1431 7.21903 55.3035 7.00005C52.5928 7.00001 45.5732 6.40143 38.3216 10.3814C29.9061 15 33.1851 22.5195 29.9061 26.2638C26.6271 30.0082 25.4413 27.4065 23.9266 29.1031Z" fill="#F3EA09" stroke="#888308" stroke-width="3" stroke-linecap="round"/>
<path d="M81.6327 30.4191C74.8438 30.3044 68.0469 30.1445 61.258 30.0748C56.9393 30.0304 52.4271 29.8818 48.113 29.4966C40.9178 28.8541 33.2602 28.6072 26.082 28.4858" stroke="#888308" stroke-width="3" stroke-linecap="round"/>
<rect x="49" y="4" width="12" height="13" fill="#F3EA09"/>
<path d="M57.0236 5.8566C56.9915 6.03678 56.9716 6.20397 56.9716 6.3434C56.9716 6.63583 57.0238 6.31117 57.0236 5.8566Z" fill="#F3EA09"/>
<path d="M61.4575 17.7618C61.4575 13.9566 62.2731 10.2111 62.2731 6.43402C62.2731 5.13833 61.9294 5.02692 60.9364 4.39501C60.4547 4.08849 59.6158 3.90074 59.056 4.05518C58.8403 4.11467 57.4341 4.26613 57.3908 4.41767C57.2395 4.94698 56.9716 5.83195 56.9716 6.3434C56.9716 6.94575 57.1928 4.92989 56.7224 4.5536C55.3162 3.42861 53.0054 4.12776 52.8936 6.1395C52.8258 7.36044 52.6897 5.19632 52.6897 4.81414C52.6897 4.02155 51.2921 4.10049 50.764 4.10049C50.1546 4.10049 48.9296 4.24645 48.6117 4.80282C48.289 5.36753 48.3922 6.24497 48.2152 6.86448C48.0079 7.58996 48 8.86696 48 9.60581C48 10.6253 48 11.6448 48 12.6643C48 14.2439 48.2039 15.8299 48.2039 17.354" stroke="#888308" stroke-width="3" stroke-linecap="round"/>
<path d="M41.1025 27.6758C42.1262 22.3014 42.2494 15.8924 42.2494 10.4722" stroke="#888308" stroke-width="3" stroke-linecap="round"/>
<path d="M66.3347 29.5874C66.3347 26.15 65.9611 22.3802 66.6958 19.074C67.2084 16.7673 67.4817 13.5381 67.4817 11.2368" stroke="#888308" stroke-width="3" stroke-linecap="round"/>
<path d="M58.0673 77.5023C61.3588 76.5057 64.5982 75.4412 67.8904 74.3856C70.7082 73.4821 73.5577 72.6004 76.2733 71.4205C77.8468 70.7368 80.2028 70.2836 81.0229 68.6042C81.3147 68.0066 81.3721 67.1826 80.9702 66.772C79.8301 65.607 78.7442 65.8517 77.2751 66.1085C72.81 66.8892 68.8583 69.7044 64.5311 70.9986C61.0806 72.0306 57.5371 73.0789 53.9565 73.5614C48.8513 74.2493 43.7391 75.1923 38.6889 76.2141C35.8554 76.7874 32.8119 77.0969 30.0391 77.8803C29.1536 78.1305 28.214 78.5363 27.9666 79.27L27.9589 79.2926C27.6034 80.3468 27.4495 80.8029 28.5535 81.5135C28.8133 81.6808 29.0588 81.9691 29.4056 82.0464C30.4488 82.2787 31.6857 82.0398 32.8572 82.1045C35.376 82.2436 38.0793 81.6879 40.5737 81.3405C46.5481 80.5084 52.2887 79.252 58.0673 77.5023Z" fill="#985E07" stroke="#684107" stroke-width="3" stroke-linecap="round"/>
<path d="M37.0328 85.0615C37.0328 85.9785 36.6967 87.1633 36.3961 88.0361C35.1419 91.6774 24.1945 89.5148 21.8175 88.6522C19.1305 87.7855 19.5791 84.471 19.0511 82.1719C18.6123 80.2609 18.0631 77.907 18.0631 75.9464C18.0631 74.7464 18 73 19.139 71.8139C20.6107 70.7205 22.6865 68 24.6828 68C28.085 68 31.3882 68.3824 34.7604 68.3824C36.2606 68.3824 39.7181 68.6724 39.9859 70.4859C40.2192 72.0665 36.1649 74.5234 34.958 75.4578C33.7426 76.3987 37.0328 83.7137 37.0328 85.0615Z" fill="#DFAF67" stroke="#705834" stroke-width="3" stroke-linecap="round"/>
<rect x="12.4449" y="63.6529" width="6" height="15.0785" rx="3" transform="rotate(-7.95596 12.4449 63.6529)" fill="#4FC978" stroke="#266D3E" stroke-width="2"/>
<rect x="16.3868" y="77.4898" width="2.93903" height="15.0785" rx="1.46951" transform="rotate(-7.95596 16.3868 77.4898)" fill="#B6B6B6" stroke="#404040" stroke-width="2"/>
<path d="M19.4342 85.6908C16.7202 85.6908 13.4497 84.737 13.4497 81.4573V78.0218C13.4497 76.7758 14.4035 76.6959 15.825 76.8227C19.8981 76.276 28.6928 75.024 28.81 75.229C30.1626 77.5961 30.0298 79.8685 30.7051 82.2996C30.9366 83.1329 31.0397 85.0197 30.4059 85.6908C29.1164 87.0561 25.0066 85.1268 24.0445 84.4053L22.626 83.4999C22.0518 84.4119 21.595 84.8382 20.9075 85.1623C20.4574 85.4839 19.9479 85.6434 19.4342 85.6908Z" fill="#DFAF67"/>
<path d="M19.4342 85.6908C16.7202 85.6908 13.4497 84.737 13.4497 81.4573C13.4497 80.3121 13.4497 79.167 13.4497 78.0218C13.4497 75.9808 16.0089 77.0687 18.9909 77.0687C21.973 77.0687 22.5 76.0001 21.828 76.4259C23.5 83.4965 21.5 85.5001 19.4342 85.6908ZM19.4342 85.6908C21.1104 85.167 21.723 84.9341 22.626 83.4999C22.626 83.4999 22.626 83.4999 24.0445 84.4053C25.0066 85.1268 29.1164 87.0561 30.4059 85.6908C31.0397 85.0197 30.9366 83.1329 30.7051 82.2996C30.0298 79.8685 30.1626 77.5961 28.81 75.229C28.6608 74.968 14.446 77.0687 13.8172 77.0687" stroke="#705834" stroke-width="3" stroke-linecap="round"/>
<path d="M10.9525 30.0963L11.6355 25.7601L15.3095 26.6162C15.1476 27.6443 15.1091 28.6951 14.9455 29.7337C14.6368 31.6938 14.3979 33.7097 14.1679 35.6785C13.7597 39.1712 13.8555 42.6998 13.3062 46.1874C13.0586 47.7592 12.9735 49.4218 12.5553 50.9547C12.3553 51.6879 12.1152 52.4017 11.9157 53.135C11.7807 53.6313 11.6708 54.2738 11.4282 54.7073C11.1734 55.1625 10.0087 54.7023 9.71616 54.6277C8.84386 54.4055 8.02595 54.304 8.03302 52.842C8.03942 51.5181 8.30789 50.167 8.32138 48.8391C8.32985 48.0057 8.4059 47.1885 8.45546 46.3532C8.66941 42.7479 9.39476 39.1124 9.96877 35.536C10.2613 33.7131 10.6649 31.9221 10.9525 30.0963Z" fill="#985E07" stroke="#684107" stroke-width="3" stroke-linecap="round"/>
<path d="M5.53677 27.0881C4.62188 26.3277 4.79642 24.7307 4.9911 23.4947C5.14144 22.0827 5.76432 19.1181 7.06136 18.5438L7.06763 18.541C7.33313 18.4235 7.57902 18.3146 7.88686 18.3344C9.11082 18.4132 9.71798 19.2038 10.5108 20.1099C11.0243 20.6969 11.2506 21.3448 11.8945 21.767C12.9347 22.4493 14.4511 22.1561 15.6123 22.4974C19.5606 23.6578 21.0647 26.1283 22.231 30.6588C22.3172 30.9934 22.7043 32.6387 22.1503 32.5515C21.2088 32.4032 20.7269 30.9059 20.048 30.2697C18.1762 28.5159 15.945 26.8679 13.5811 26.3095C12.5167 26.058 11.5214 25.9216 10.4124 26.1227C8.17059 26.5292 7.53878 28.752 5.53677 27.0881Z" fill="#B6B6B6" stroke="#757575" stroke-width="3" stroke-linecap="round"/>
</svg>
