<svg width="135" height="109" viewBox="0 0 135 109" fill="none" xmlns="http://www.w3.org/2000/svg">
<path d="M17.0391 43.4124C20.9278 45.1697 25.5925 50.5455 27.7308 52.3288C29.9154 56.5919 27.6569 56.7397 26.2546 56.2807C23.9112 55.2276 18.1311 53.563 14.5376 51.0153C10.9441 48.4676 7.78681 45.0629 8.28709 43.5423C8.78738 42.0217 13.1503 41.655 17.0391 43.4124Z" fill="white" stroke="#054169" stroke-width="3" stroke-linecap="round"/>
<path d="M27.9702 70.5999C27.9702 70.5999 28.2502 80.6899 29.0702 82.5999C29.8902 84.5099 33.7502 86.6599 35.0702 87.7299C36.3902 88.8 37.5502 89.19 37.7102 91.68C37.8702 94.17 38.2802 96.8 40.0302 96.46C41.7802 96.12 44.5102 94.16 44.3302 90.02C44.8002 88.79 47.5002 85.86 52.8902 86.93C58.2802 88 61.1502 87.6399 61.9902 88.3099C62.8302 88.9799 63.5402 90.99 63.9902 92.46C64.4402 93.93 64.4402 95.6 66.1402 96.02C66.8169 96.2677 67.5602 96.2635 68.234 96.0083C68.9079 95.753 69.4674 95.2638 69.8102 94.6299C70.5602 93.3099 70.3902 90.79 70.5602 89.55C70.7302 88.31 72.1702 87.1699 73.6102 85.8099C75.0502 84.4499 77.3102 81.2 77.6802 78.74C78.0502 76.28 78.2002 69.9399 78.2002 69.9399C78.2002 69.9399 52.0502 75.3399 27.9702 70.5999Z" fill="#EF7725"/>
<path d="M27.8497 69.1101C27.8497 69.1101 27.8497 62 26.62 58.5C26.62 58.5 26.6196 55.5699 26.6198 54C27.7598 55.25 25.2997 48.8301 26.6197 47.5101C27.9397 46.1901 26.3797 45.7401 26.6197 42.8701C26.8597 40.0001 26.3197 30.5501 30.6197 26.7101C36.7791 21.2099 44.8047 18.2664 53.0597 18.4801C63.8797 18.5901 72.4297 23.0801 74.7197 25.2001C77.0097 27.3201 79.2497 29.6801 79.8797 31.9101C80.7669 34.4163 81.011 37.1051 80.5897 39.7301C79.9997 42.9301 80.7997 45.49 80.5897 47C80.3797 48.51 80.2698 51.4301 80.2698 51.4301C79.5997 57.5 79.8797 55.5 79.5997 60.8601C78.6797 63.5301 79.3198 66.8601 78.1698 68.3701C77.0198 69.8801 75.0898 70.0701 74.2298 70.3701C73.3698 70.6701 30.6698 75.4401 27.8298 69.0801" fill="white"/>
<path d="M29.8897 84.4799C30.1066 84.7758 30.3584 85.0444 30.6397 85.2799C32.1597 86.5599 34.4096 86.9799 35.8696 88.4599C36.8277 89.3162 37.4483 90.4865 37.6196 91.7599C37.7896 93.0999 37.4997 94.6199 38.3297 95.6799C39.3197 96.9499 41.4597 96.7199 42.5897 95.5799C43.6316 94.3364 44.1766 92.7513 44.1197 91.1299C44.2197 88.5199 45.4697 87.5999 48.0097 87.2999C51.669 86.8732 55.3693 86.9438 59.0097 87.5099C60.5497 87.7499 62.2496 88.1899 63.0896 89.5099C63.5532 90.4692 63.8314 91.5074 63.9097 92.5699C64.081 93.6927 64.5863 94.738 65.3597 95.5699C65.7548 95.982 66.2573 96.2752 66.8105 96.4166C67.3636 96.558 67.9453 96.5418 68.4897 96.3699C69.058 96.0907 69.5424 95.6661 69.8936 95.1392C70.2449 94.6123 70.4505 94.0019 70.4897 93.3699C70.5556 92.1175 70.5556 90.8624 70.4897 89.6099C70.4654 88.8547 70.6673 88.1095 71.0697 87.4699C71.6897 86.6199 72.6897 86.3899 73.5397 85.8699C74.3405 85.3317 75.0214 84.6338 75.5397 83.8199C76.6608 82.1304 79.8497 67 79.8497 56.0699C79.8497 50 81.1897 40.2599 80.7097 35.4599C79.5497 23.9299 64.8497 19.1599 54.9997 18.5999C44.6997 18.0099 30.4097 21.0999 27.8397 32.6599C26.8897 36.9599 26.7897 41.5299 26.3597 45.9099C26.1501 48.0469 27.3684 62.3223 27.3897 63.3499C27.8297 68.9899 28.283 74.6299 28.7497 80.2699C28.7406 81.7507 29.1347 83.206 29.8897 84.4799Z" stroke="#054169" stroke-width="3" stroke-miterlimit="10"/>
<path d="M28.71 70.98C44.7022 73.2459 60.9557 72.9081 76.8399 69.98L79.5 69" stroke="#054169" stroke-width="3" stroke-miterlimit="10"/>
<path d="M28.0266 51.4502C27.9446 52.0355 28.0533 52.6316 28.3366 53.1502C28.498 53.3854 28.7014 53.5888 28.9366 53.7502C29.6029 54.1849 30.3634 54.4543 31.1547 54.536C31.9461 54.6178 32.7455 54.5095 33.4866 54.2202C33.8447 54.1039 34.1822 53.9317 34.4866 53.7102C34.7679 53.4921 34.9986 53.2155 35.1626 52.8996C35.3266 52.5836 35.4201 52.2358 35.4366 51.8802C35.5766 48.3502 28.2866 47.9002 28.0266 51.4502Z" fill="#EF7725"/>
<path d="M57.7 52.548C56.46 51.868 52.99 51.438 53 53.658C53.0449 54.2452 53.3134 54.7928 53.75 55.188C54.91 56.388 58.08 57.728 59.22 55.768C59.3684 55.4711 59.4406 55.1421 59.4302 54.8104C59.4197 54.4787 59.3268 54.1548 59.16 53.868C58.8062 53.3002 58.3004 52.8429 57.7 52.548V52.548Z" fill="#EF7725"/>
<path d="M37.5488 40.5104C37.0189 40.2135 36.4283 40.0412 35.8219 40.0065C35.2155 39.9719 34.6091 40.0758 34.0488 40.3104C33.2785 40.6913 32.6657 41.3298 32.3168 42.1152C31.968 42.9007 31.905 43.7834 32.1388 44.6104C32.3431 45.1139 32.6679 45.5595 33.0846 45.9082C33.5013 46.2569 33.9972 46.498 34.5288 46.6104C35.3459 46.8233 36.2072 46.7955 37.0088 46.5304C37.5557 46.3256 38.0398 45.9817 38.4133 45.5328C38.7868 45.0839 39.0369 44.5454 39.1388 43.9704C39.3074 43.2563 39.2188 42.5056 38.8888 41.8504C38.5857 41.2801 38.1191 40.8135 37.5488 40.5104V40.5104Z" fill="#054169"/>
<path d="M52.5468 41.0001C51.7325 41.0152 50.9343 41.229 50.2215 41.6229C49.5087 42.0167 48.9029 42.5788 48.4568 43.2601C48.2139 43.6753 48.0637 44.1382 48.0163 44.6169C47.9688 45.0957 48.0254 45.579 48.1821 46.0339C48.3388 46.4887 48.5919 46.9044 48.9241 47.2523C49.2562 47.6003 49.6597 47.8724 50.1068 48.0501C51.0096 48.3307 51.9819 48.2882 52.8568 47.9301C53.6217 47.6543 54.2845 47.152 54.7568 46.4901C55.0695 45.9952 55.2677 45.4366 55.3369 44.8553C55.4061 44.274 55.3446 43.6845 55.1568 43.13C54.9891 42.5542 54.6716 42.0332 54.2368 41.6201C53.7671 41.2156 53.1666 40.9953 52.5468 41.0001Z" fill="#054169"/>
<path d="M38.4349 55.3106C39.1436 56.2185 40.1726 56.9327 41.3742 57.3505C42.1862 57.6433 43.0593 57.7831 43.9272 57.7592C44.795 57.7353 45.6347 57.5484 46.3825 57.2126C47.6468 56.5803 49.0402 54.9354 48.0164 53.6801C47.8749 53.4912 47.6605 53.3453 47.4099 53.2672C47.1592 53.1892 46.8878 53.1838 46.6419 53.2521C46.1043 53.4539 46.0079 54.0433 45.8125 54.4892C45.5584 54.9944 45.13 55.4218 44.5779 55.7207C44.0258 56.0197 43.3731 56.1778 42.6969 56.1763C41.8972 56.1653 41.1045 55.9807 40.3988 55.6412C39.6931 55.3017 39.0994 54.8194 38.6776 54.2428C38.5498 54.0422 38.4444 53.8332 38.3626 53.6185C38.2806 53.4249 38.1464 52.5533 37.7787 52.5936C37.1062 52.6823 37.8958 54.3525 38.0685 54.671C38.1722 54.8904 38.2947 55.1041 38.4349 55.3106V55.3106Z" fill="#054169"/>
<path d="M23.9266 29.1031C22.4119 30.7997 22.9999 32.2755 23.9999 32.2755C39.4803 36.6155 58.219 34.6444 74.2689 34.834C86.4561 34.978 85.6619 35.6669 84.7686 32.5752C84.1565 30.4568 81.0145 31.455 77.8305 27.8049C75.2859 22.0258 78.0702 14.4999 68.9998 10.3814C62.9189 7.6202 61.1431 7.21903 55.3035 7.00005C52.5928 7.00001 45.5732 6.40143 38.3216 10.3814C29.9061 15 33.1851 22.5195 29.9061 26.2638C26.6271 30.0082 25.4413 27.4065 23.9266 29.1031Z" fill="#F3EA09" stroke="#888308" stroke-width="3" stroke-linecap="round"/>
<path d="M81.6327 30.4191C74.8438 30.3044 68.0469 30.1445 61.258 30.0748C56.9393 30.0304 52.4271 29.8818 48.113 29.4966C40.9178 28.8541 33.2602 28.6072 26.082 28.4858" stroke="#888308" stroke-width="3" stroke-linecap="round"/>
<rect x="43" y="5" width="12" height="13" fill="#F3EA09"/>
<path d="M51.0236 5.8566C50.9915 6.03678 50.9716 6.20397 50.9716 6.3434C50.9716 6.63583 51.0238 6.31117 51.0236 5.8566Z" fill="#F3EA09"/>
<path d="M55.4575 17.7618C55.4575 13.9566 56.2731 10.2111 56.2731 6.43402C56.2731 5.13833 55.9294 5.02692 54.9364 4.39501C54.4547 4.08849 53.6158 3.90074 53.056 4.05518C52.8403 4.11467 51.4341 4.26613 51.3908 4.41767C51.2395 4.94698 50.9716 5.83195 50.9716 6.3434C50.9716 6.94575 51.1928 4.92989 50.7224 4.5536C49.3162 3.42861 47.0054 4.12776 46.8936 6.1395C46.8258 7.36044 46.6897 5.19632 46.6897 4.81414C46.6897 4.02155 45.2921 4.10049 44.764 4.10049C44.1546 4.10049 42.9296 4.24645 42.6117 4.80282C42.289 5.36753 42.3922 6.24497 42.2152 6.86448C42.0079 7.58996 42 8.86696 42 9.60581C42 10.6253 42 11.6448 42 12.6643C42 14.2439 42.2039 15.8299 42.2039 17.354" stroke="#888308" stroke-width="3" stroke-linecap="round"/>
<path d="M35 28C35.8926 23.0016 36 17.041 36 12" stroke="#888308" stroke-width="3" stroke-linecap="round"/>
<path d="M60.0765 30C60.0765 26.0663 59.7756 21.7522 60.3672 17.9688C60.78 15.329 61 11.6335 61 9" stroke="#888308" stroke-width="3" stroke-linecap="round"/>
<path d="M60.9427 16.7485C63.1823 15.903 65.5321 14.6943 67.8951 14.4346C69.5438 14.2534 71.7254 13.6649 73.2248 13.0989" stroke="#888308" stroke-width="3" stroke-linecap="round"/>
<path d="M58.0673 77.5023C61.3588 76.5057 64.5982 75.4412 67.8904 74.3856C70.7082 73.4821 73.5577 72.6004 76.2733 71.4205C77.8468 70.7368 80.2028 70.2836 81.0229 68.6042C81.3147 68.0066 81.3721 67.1826 80.9702 66.772C79.8301 65.607 78.7442 65.8517 77.2751 66.1085C72.81 66.8892 68.8583 69.7044 64.5311 70.9986C61.0806 72.0306 57.5371 73.0789 53.9565 73.5614C48.8513 74.2493 43.7391 75.1923 38.6889 76.2141C35.8554 76.7874 32.8119 77.0969 30.0391 77.8803C29.1536 78.1305 28.214 78.5363 27.9666 79.27L27.9589 79.2926C27.6034 80.3468 27.4495 80.8029 28.5535 81.5135C28.8133 81.6808 29.0588 81.9691 29.4056 82.0464C30.4488 82.2787 31.6857 82.0398 32.8572 82.1045C35.376 82.2436 38.0793 81.6879 40.5737 81.3405C46.5481 80.5084 52.2887 79.252 58.0673 77.5023Z" fill="#985E07" stroke="#684107" stroke-width="3" stroke-linecap="round"/>
<path d="M37.0328 85.0615C37.0328 85.9785 36.6967 87.1633 36.3961 88.0361C35.1419 91.6774 24.1945 89.5148 21.8175 88.6522C19.1305 87.7855 19.5791 84.471 19.0511 82.1719C18.6123 80.2609 18.0631 77.907 18.0631 75.9464C18.0631 74.7464 18 73 19.139 71.8139C20.6107 70.7205 22.6865 68 24.6828 68C28.085 68 31.3882 68.3824 34.7604 68.3824C36.2606 68.3824 39.7181 68.6724 39.9859 70.4859C40.2192 72.0665 36.1649 74.5234 34.958 75.4578C33.7426 76.3987 37.0328 83.7137 37.0328 85.0615Z" fill="#DFAF67" stroke="#705834" stroke-width="3" stroke-linecap="round"/>
<rect x="12.4449" y="63.6529" width="6" height="15.0785" rx="3" transform="rotate(-7.95596 12.4449 63.6529)" fill="#4FC978" stroke="#266D3E" stroke-width="2"/>
<rect x="16.3868" y="77.4898" width="2.93903" height="15.0785" rx="1.46951" transform="rotate(-7.95596 16.3868 77.4898)" fill="#B6B6B6" stroke="#404040" stroke-width="2"/>
<path d="M19.4342 85.6908C16.7202 85.6908 13.4497 84.737 13.4497 81.4573V78.0218C13.4497 76.7758 14.4035 76.6959 15.825 76.8227C19.8981 76.276 28.6928 75.024 28.81 75.229C30.1626 77.5961 30.0298 79.8685 30.7051 82.2996C30.9366 83.1329 31.0397 85.0197 30.4059 85.6908C29.1164 87.0561 25.0066 85.1268 24.0445 84.4053L22.626 83.4999C22.0518 84.4119 21.595 84.8382 20.9075 85.1623C20.4574 85.4839 19.9479 85.6434 19.4342 85.6908Z" fill="#DFAF67"/>
<path d="M19.4342 85.6908C16.7202 85.6908 13.4497 84.737 13.4497 81.4573C13.4497 80.3121 13.4497 79.167 13.4497 78.0218C13.4497 75.9808 16.0089 77.0687 18.9909 77.0687C21.973 77.0687 22.5 76.0001 21.828 76.4259C23.5 83.4965 21.5 85.5001 19.4342 85.6908ZM19.4342 85.6908C21.1104 85.167 21.723 84.9341 22.626 83.4999C22.626 83.4999 22.626 83.4999 24.0445 84.4053C25.0066 85.1268 29.1164 87.0561 30.4059 85.6908C31.0397 85.0197 30.9366 83.1329 30.7051 82.2996C30.0298 79.8685 30.1626 77.5961 28.81 75.229C28.6608 74.968 14.446 77.0687 13.8172 77.0687" stroke="#705834" stroke-width="3" stroke-linecap="round"/>
<path d="M88.3963 51.3034C87.9155 51.1342 87.588 50.754 87.2681 51.2338C79.2273 63.295 68.1144 72.9898 61 85.7751C62.2603 86.9091 80.3993 99.2187 94.9819 101.28C101.836 92.4364 114.717 75.5467 119.776 63.5322C119.994 63.0136 119.69 63.0123 119.386 62.7383C119.244 62.6103 119.071 62.6096 118.898 62.5711C108.14 60.1803 98.6756 54.9229 88.3963 51.3034Z" fill="#7082AF" stroke="#52638C" stroke-width="3" stroke-linecap="round"/>
<line x1="115.82" y1="68.4663" x2="84.8196" y2="56.4663" stroke="#52638C"/>
<line x1="112.82" y1="73.4663" x2="81.8196" y2="61.4663" stroke="#52638C"/>
<line x1="108.82" y1="78.4663" x2="77.8196" y2="66.4663" stroke="#52638C"/>
<line x1="105.82" y1="83.4663" x2="74.8196" y2="71.4663" stroke="#52638C"/>
<line x1="101.82" y1="88.4663" x2="70.8196" y2="76.4663" stroke="#52638C"/>
<line x1="97.8197" y1="94.4663" x2="66.8197" y2="82.4663" stroke="#52638C"/>
<line x1="112.998" y1="62.9914" x2="88.6946" y2="97.6612" stroke="#52638C"/>
<line x1="107.713" y1="61.287" x2="83.4094" y2="95.9569" stroke="#52638C"/>
<line x1="101.713" y1="59.287" x2="77.4095" y2="93.9569" stroke="#52638C"/>
<line x1="96.7134" y1="56.287" x2="72.4095" y2="90.9569" stroke="#52638C"/>
<line x1="91.7134" y1="54.287" x2="67.4095" y2="88.9569" stroke="#52638C"/>
<path d="M96.7132 77.0435C96.6078 77.1279 96.5353 77.4888 96.4827 77.6173C95.3212 80.4565 93.0899 82.7989 91.8719 85.6196C91.7799 85.954 91.3376 86.5327 90.3042 86.1729C86.139 85.1316 82.2747 82.2694 78.3879 80.5068C78.1699 80.4079 77.1202 79.9946 77.3018 79.6768C77.4286 79.4549 77.6274 79.2392 77.7833 79.0313C79.4454 76.8152 80.9502 74.3531 82.3736 71.9717C82.4984 71.7629 82.9555 70.5391 83.2548 70.5935C87.3247 71.3335 91.8699 75.079 95.9806 76.4493C96.1615 76.5096 97.1456 76.6976 96.7132 77.0435Z" stroke="white" stroke-linecap="square"/>
<path d="M99.3087 81.2437C97.6359 77.8394 95.3937 73.1865 95.0168 69.3266C94.979 68.9397 94.7575 68.5788 94.7009 68.2098C94.6636 67.9664 93.335 68.456 93.1421 68.4899C88.3808 69.3247 82.5754 70.3868 77.8047 70.5535" stroke="white" stroke-linecap="square"/>
<path d="M68.4492 82.2998C69.8159 83.7908 71.9298 84.4824 73.685 85.3993C75.3261 86.2566 76.9737 87.0782 78.6391 87.884C79.0851 88.0998 79.4719 88.4321 79.884 88.7037C80.7678 89.2862 81.7625 89.7111 82.7222 90.1484C83.8323 90.6543 84.9656 91.2863 86.0112 91.9108C86.9542 92.4739 88.0526 92.7829 88.9673 93.3606C89.2376 93.5314 89.5653 93.6315 89.8433 93.7551C90.0778 93.8593 90.1806 94.0877 90.3966 94.1957" stroke="white" stroke-linecap="square"/>
<path d="M90.8577 92.1669C91.2538 91.8668 91.5785 91.544 91.872 91.1526" stroke="white" stroke-linecap="square"/>
<path d="M87.3533 90.2304C87.5276 89.9374 87.6748 89.5756 87.9527 89.3594C88.0593 89.2765 88.1244 89.2413 88.1832 89.1238" stroke="white" stroke-linecap="square"/>
<path d="M83.7568 88.5706C83.9649 88.296 84.394 87.6064 84.679 87.464" stroke="white" stroke-linecap="square"/>
<path d="M80.1604 86.4495C80.4593 86.1507 80.8047 85.8064 80.9903 85.4352" stroke="white" stroke-linecap="square"/>
<path d="M76.5642 84.8819C76.7648 84.6172 77.2483 83.9776 77.5786 83.8676" stroke="white" stroke-linecap="square"/>
<path d="M73.9819 83.5908C74.2098 83.2172 74.68 82.8799 74.8119 82.4842" stroke="white" stroke-linecap="square"/>
<path d="M70.6621 81.3777C70.9229 81.0616 71.2399 80.8168 71.4921 80.5016C71.6268 80.3331 71.8545 80.284 71.9531 80.0866" stroke="white" stroke-linecap="square"/>
<path d="M103.825 76.2967C103.604 75.0526 103.137 73.8332 102.789 72.6173C101.77 69.0504 101.389 66.4597 99.8829 63.0562C99.8247 62.9249 99.4141 61.2175 99.2089 61.2633C98.3594 61.4529 97.5269 61.6672 96.6647 61.8115C92.0717 62.5803 86.7071 62.6553 81.7163 63.0562" stroke="white" stroke-linecap="square"/>
<path d="M94.0974 62.589C94.0974 64.0539 94.6466 65.138 95.7768 65.9198C97.2116 66.9124 98.8327 66.6596 100.288 65.8766" stroke="white" stroke-linecap="square"/>
<path d="M97.1282 89.0316C98.3432 87.3306 99.8587 85.8437 101.145 84.1903C101.369 83.9023 101.772 83.524 101.923 83.222" stroke="white" stroke-linecap="square"/>
<path d="M102.941 84.6981C102.794 83.8812 102.696 83.0309 102.654 82.2016C102.634 81.7956 102.184 82.235 100.288 82.8825" stroke="white" stroke-linecap="square"/>
<path d="M99.0748 89.2878C98.4628 89.4836 97.8288 89.5242 97.1998 89.6567C96.8812 89.7237 96.4006 89.9743 96.4006 89.6003C96.4006 88.8509 96.3083 88.0511 96.3083 87.3513" stroke="white" stroke-linecap="square"/>
<path d="M82.3735 81.3777C83.1979 80.0306 84.2719 78.6409 84.8429 77.1562C84.9653 76.8379 87.6932 77.9733 88.0038 78.1091C88.3935 78.2796 88.1473 78.4213 87.9475 78.7034C86.9724 80.08 85.8066 81.4277 85.0478 82.9454" stroke="white" stroke-linecap="square"/>
<path d="M85.3256 61.5972C84.4489 57.0882 81.2913 55.0579 80.2827 53.423C79.2837 57.0877 77.7072 65.1254 79.3927 67.9585C80.4475 69.5604 83.4798 77.2402 84.6664 75.9679C85.853 74.6956 86.2023 66.1062 85.3256 61.5972Z" fill="white" stroke="#054169" stroke-width="3" stroke-linecap="round"/>
<path d="M13.8756 38.0756C14.0158 38.1593 14.0617 38.5044 14.1111 38.6536C15.5522 43.006 16.8429 48.0617 18.7513 52.2452C18.8771 52.6252 19.2176 52.8528 19.3387 53.2186C19.3915 53.3779 19.5512 53.5947 19.3481 53.6696C19.0628 53.7749 18.9169 53.9371 18.6314 54.0403C17.4347 54.473 16.2534 54.8969 15.0233 55.2313C14.7469 55.3064 14.5527 55.3781 14.4586 55.0939C12.8374 50.1973 10.6068 45.1233 9.33423 40.1956C9.28342 39.9988 9.03503 39.5498 9.27554 39.44C9.94447 39.1348 10.646 38.925 11.3478 38.6926L13.1463 38.0972C13.4452 37.9982 13.5947 37.9079 13.8756 38.0756Z" fill="#FAAE7A" stroke="#BA825B" stroke-width="3" stroke-linecap="round"/>
<path d="M9.41197 30.7295C10.9716 32.2968 12.1348 34.2119 13.1128 36.1785C13.0653 37.4311 12.1076 39.6524 8.65684 38.5169C8.5835 38.2954 8.55542 38.037 8.47686 37.7997C8.33806 37.3805 8.16261 36.9914 8.05045 36.5504C7.94484 36.1352 7.89689 35.7395 7.856 35.317C7.81268 34.8694 7.65458 34.4235 7.58792 33.977C7.49597 33.3609 7.47205 32.7942 7.55357 32.1759C7.62159 31.66 7.72518 31.1523 7.79775 30.6374C7.84855 30.2771 7.88587 29.9146 7.91079 29.5516C7.915 29.4902 7.89533 29.3269 7.93985 29.3693C8.42253 29.8295 8.94226 30.2575 9.41197 30.7295Z" fill="#FFFACB" stroke="#ABA780" stroke-width="3" stroke-linecap="round"/>
<path d="M6.14816 25.2205L11.9328 31.2234L6.03559 33.5562L6.14816 25.2205Z" fill="black"/>
</svg>
