<svg width="113" height="109" viewBox="0 0 113 109" fill="none" xmlns="http://www.w3.org/2000/svg">
<path d="M85.3257 61.5972C84.449 57.0882 81.2914 55.0579 80.2828 53.423C79.2838 57.0877 77.7073 65.1254 79.3929 67.9585C80.4476 69.5604 83.4799 77.2402 84.6665 75.9679C85.8531 74.6956 86.2025 66.1062 85.3257 61.5972Z" fill="white" stroke="#054169" stroke-width="3" stroke-linecap="round"/>
<path d="M17.0391 43.4124C20.9278 45.1697 25.5925 50.5455 27.7308 52.3288C29.9154 56.5919 27.6569 56.7397 26.2546 56.2807C23.9112 55.2276 18.1311 53.563 14.5376 51.0153C10.9441 48.4676 7.78681 45.0629 8.28709 43.5423C8.78738 42.0217 13.1503 41.655 17.0391 43.4124Z" fill="white" stroke="#054169" stroke-width="3" stroke-linecap="round"/>
<path d="M27.9702 70.5999C27.9702 70.5999 28.2502 80.6899 29.0702 82.5999C29.8902 84.5099 33.7502 86.66 35.0702 87.7299C36.3902 88.7999 37.5502 89.19 37.7102 91.68C37.8702 94.17 38.2802 96.8 40.0302 96.46C41.7802 96.12 44.5102 94.16 44.3302 90.02C44.8002 88.79 47.5002 85.86 52.8902 86.93C58.2802 88 61.1502 87.6399 61.9902 88.3099C62.8302 88.9799 63.5402 90.99 63.9902 92.46C64.4402 93.93 64.4402 95.6 66.1402 96.02C66.8169 96.2677 67.5602 96.2635 68.234 96.0083C68.9079 95.753 69.4674 95.2638 69.8102 94.6299C70.5602 93.3099 70.3902 90.79 70.5602 89.55C70.7302 88.31 72.1702 87.1699 73.6102 85.8099C75.0502 84.4499 77.3102 81.2 77.6802 78.74C78.0502 76.28 78.2002 69.9399 78.2002 69.9399C78.2002 69.9399 52.0502 75.3399 27.9702 70.5999Z" fill="#EF7725"/>
<path d="M27.8497 69.1101C27.8497 69.1101 27.8497 62 26.62 58.5C26.62 58.5 26.6196 55.5699 26.6198 54C27.7598 55.25 25.2997 48.8301 26.6197 47.5101C27.9397 46.1901 26.3797 45.7401 26.6197 42.8701C26.8597 40.0001 26.3197 30.5501 30.6197 26.7101C36.7791 21.2099 44.8047 18.2664 53.0597 18.4801C63.8797 18.5901 72.4297 23.0801 74.7197 25.2001C77.0098 27.3201 79.2497 29.6801 79.8797 31.9101C80.7669 34.4163 81.011 37.1051 80.5897 39.7301C79.9997 42.9301 80.7997 45.49 80.5897 47C80.3797 48.51 80.2698 51.4301 80.2698 51.4301C79.5997 57.5 79.8797 55.5 79.5997 60.8601C78.6797 63.5301 79.3198 66.8601 78.1698 68.3701C77.0198 69.8801 75.0898 70.0701 74.2298 70.3701C73.3698 70.6701 30.6698 75.4401 27.8298 69.0801" fill="white"/>
<path d="M29.8897 84.4799C30.1066 84.7758 30.3584 85.0444 30.6397 85.2799C32.1597 86.5599 34.4096 86.9799 35.8696 88.4599C36.8277 89.3162 37.4483 90.4865 37.6196 91.7599C37.7896 93.0999 37.4997 94.6199 38.3297 95.6799C39.3197 96.9499 41.4597 96.7199 42.5897 95.5799C43.6316 94.3364 44.1766 92.7513 44.1197 91.1299C44.2197 88.5199 45.4697 87.5999 48.0097 87.2999C51.669 86.8732 55.3693 86.9438 59.0097 87.5099C60.5497 87.7499 62.2496 88.1899 63.0896 89.5099C63.5532 90.4692 63.8314 91.5074 63.9097 92.5699C64.081 93.6927 64.5863 94.738 65.3597 95.5699C65.7548 95.982 66.2573 96.2752 66.8105 96.4166C67.3636 96.558 67.9453 96.5418 68.4897 96.3699C69.058 96.0907 69.5424 95.6661 69.8936 95.1392C70.2449 94.6123 70.4505 94.0019 70.4897 93.3699C70.5556 92.1175 70.5556 90.8624 70.4897 89.6099C70.4654 88.8547 70.6673 88.1095 71.0697 87.4699C71.6897 86.6199 72.6897 86.3899 73.5397 85.8699C74.3405 85.3317 75.0214 84.6338 75.5397 83.8199C76.6608 82.1304 79.8497 67 79.8497 56.0699C79.8497 50 81.1897 40.2599 80.7097 35.4599C79.5497 23.9299 64.8497 19.1599 54.9997 18.5999C44.6997 18.0099 30.4097 21.0999 27.8397 32.6599C26.8897 36.9599 26.7897 41.5299 26.3597 45.9099C26.1501 48.0469 27.3684 62.3223 27.3897 63.3499C27.8297 68.9899 28.283 74.6299 28.7497 80.2699C28.7406 81.7507 29.1347 83.206 29.8897 84.4799Z" stroke="#054169" stroke-width="3" stroke-miterlimit="10"/>
<path d="M28.71 70.98C44.7022 73.2459 60.9557 72.9081 76.8399 69.98L79.5 69" stroke="#054169" stroke-width="3" stroke-miterlimit="10"/>
<path d="M35.0701 53.0801C34.9881 53.6654 35.0968 54.2615 35.3801 54.7801C35.5415 55.0153 35.7449 55.2187 35.9801 55.3801C36.6464 55.8148 37.4068 56.0842 38.1982 56.1659C38.9895 56.2477 39.789 56.1394 40.5301 55.8501C40.8881 55.7337 41.2256 55.5616 41.5301 55.3401C41.8114 55.122 42.042 54.8454 42.2061 54.5295C42.3701 54.2135 42.4636 53.8657 42.4801 53.5101C42.6201 49.9801 35.3301 49.5301 35.0701 53.0801Z" fill="#EF7725"/>
<path d="M68.8802 52.0699C67.6402 51.3899 64.1702 50.96 64.1802 53.18C64.2251 53.7672 64.4935 54.3148 64.9302 54.71C66.0902 55.91 69.2602 57.2499 70.4002 55.2899C70.5486 54.9931 70.6208 54.664 70.6103 54.3324C70.5999 54.0007 70.507 53.6768 70.3402 53.3899C69.9864 52.8222 69.4806 52.3649 68.8802 52.0699Z" fill="#EF7725"/>
<path d="M43.5801 41.35C43.0502 41.0531 42.4596 40.8808 41.8532 40.8461C41.2467 40.8115 40.6404 40.9154 40.0801 41.15C39.3097 41.5309 38.697 42.1694 38.3481 42.9548C37.9992 43.7403 37.9363 44.623 38.1701 45.45C38.3744 45.9535 38.6991 46.3991 39.1158 46.7478C39.5325 47.0965 40.0285 47.3376 40.5601 47.45C41.3772 47.6629 42.2384 47.6351 43.0401 47.37C43.587 47.1652 44.071 46.8213 44.4446 46.3724C44.8181 45.9235 45.0681 45.385 45.1701 44.81C45.3386 44.0959 45.2501 43.3452 44.9201 42.69C44.6169 42.1197 44.1503 41.6531 43.5801 41.35Z" fill="#054169"/>
<path d="M66.9701 42.3699C66.1559 42.3851 65.3577 42.5989 64.6449 42.9928C63.9321 43.3866 63.3263 43.9486 62.8801 44.6299C62.6373 45.0452 62.487 45.5081 62.4396 45.9868C62.3922 46.4655 62.4488 46.9489 62.6055 47.4037C62.7621 47.8586 63.0152 48.2742 63.3474 48.6222C63.6796 48.9702 64.083 49.2423 64.5301 49.4199C65.4329 49.7005 66.4052 49.6581 67.2801 49.2999C68.0451 49.0242 68.7079 48.5219 69.1801 47.8599C69.4929 47.365 69.691 46.8065 69.7602 46.2252C69.8294 45.6438 69.7679 45.0544 69.5801 44.4999C69.4124 43.9241 69.095 43.403 68.6601 42.9899C68.1904 42.5855 67.5899 42.3652 66.9701 42.3699Z" fill="#054169"/>
<path d="M49.6701 52.33C50.4432 53.2677 51.4934 53.9363 52.6701 54.24C53.4665 54.4571 54.302 54.4898 55.1129 54.3356C55.9239 54.1814 56.689 53.8443 57.3501 53.35C58.4601 52.44 59.5701 50.35 58.4601 49.06C58.3049 48.864 58.0864 48.728 57.842 48.6751C57.5977 48.6222 57.3425 48.6557 57.1201 48.77C56.6401 49.08 56.6201 49.77 56.4901 50.31C56.3123 50.9265 55.9616 51.4792 55.4796 51.9027C54.9976 52.3262 54.4044 52.6029 53.7701 52.7C53.0189 52.8042 52.2535 52.7084 51.5512 52.4222C50.8489 52.136 50.2345 51.6696 49.7701 51.07C49.6263 50.8586 49.5025 50.6343 49.4001 50.4C49.3001 50.19 49.0701 49.21 48.7301 49.31C48.1101 49.51 49.0501 51.31 49.2501 51.65C49.3736 51.8865 49.5139 52.1137 49.6701 52.33Z" fill="#054169"/>
<path d="M58.0673 77.5023C61.3588 76.5057 64.5982 75.4412 67.8904 74.3856C70.7082 73.4821 73.5577 72.6004 76.2733 71.4205C77.8468 70.7368 80.2028 70.2836 81.0229 68.6042C81.3147 68.0066 81.3721 67.1826 80.9702 66.772C79.8301 65.607 78.7442 65.8517 77.2751 66.1085C72.81 66.8892 68.8583 69.7044 64.5311 70.9986C61.0806 72.0306 57.5371 73.0789 53.9565 73.5614C48.8513 74.2493 43.7391 75.1923 38.6889 76.2141C35.8554 76.7874 32.8119 77.0969 30.0391 77.8803C29.1536 78.1305 28.214 78.5363 27.9666 79.27L27.9589 79.2926C27.6034 80.3468 27.4495 80.8029 28.5535 81.5135C28.8133 81.6808 29.0588 81.9691 29.4056 82.0464C30.4488 82.2787 31.6857 82.0398 32.8572 82.1045C35.376 82.2436 38.0793 81.6879 40.5737 81.3405C46.5481 80.5084 52.2887 79.252 58.0673 77.5023Z" fill="#985E07" stroke="#684107" stroke-width="3" stroke-linecap="round"/>
<path d="M37.0328 85.0615C37.0328 85.9785 36.6967 87.1633 36.3961 88.0361C35.1419 91.6774 24.1945 89.5148 21.8175 88.6522C19.1305 87.7855 19.5791 84.471 19.0511 82.1719C18.6123 80.2609 18.0631 77.907 18.0631 75.9464C18.0631 74.7464 18 73 19.139 71.8139C20.6107 70.7205 22.6865 68 24.6828 68C28.085 68 31.3882 68.3824 34.7604 68.3824C36.2606 68.3824 39.7181 68.6724 39.9859 70.4859C40.2192 72.0665 36.1649 74.5234 34.958 75.4578C33.7426 76.3987 37.0328 83.7137 37.0328 85.0615Z" fill="#DFAF67" stroke="#705834" stroke-width="3" stroke-linecap="round"/>
<path d="M19.4342 85.6908C16.7202 85.6908 13.4497 84.737 13.4497 81.4573V78.0218C13.4497 76.7758 14.4035 76.6959 15.825 76.8227C19.8981 76.276 28.6928 75.024 28.81 75.229C30.1626 77.5961 30.0298 79.8685 30.7051 82.2996C30.9366 83.1329 31.0397 85.0197 30.4059 85.6908C29.1164 87.0561 25.0066 85.1268 24.0445 84.4053L22.626 83.4999C22.0518 84.4119 21.595 84.8382 20.9075 85.1623C20.4574 85.4839 19.9479 85.6434 19.4342 85.6908Z" fill="#DFAF67"/>
<path d="M19.4342 85.6908C16.7202 85.6908 13.4497 84.737 13.4497 81.4573C13.4497 80.3121 13.4497 79.167 13.4497 78.0218C13.4497 75.9808 16.0089 77.0687 18.9909 77.0687C21.973 77.0687 22.5 76.0001 21.828 76.4259C23.5 83.4965 21.5 85.5001 19.4342 85.6908ZM19.4342 85.6908C21.1104 85.167 21.723 84.9341 22.626 83.4999C22.626 83.4999 22.626 83.4999 24.0445 84.4053C25.0066 85.1268 29.1164 87.0561 30.4059 85.6908C31.0397 85.0197 30.9366 83.1329 30.7051 82.2996C30.0298 79.8685 30.1626 77.5961 28.81 75.229C28.6608 74.968 14.446 77.0687 13.8172 77.0687" stroke="#705834" stroke-width="3" stroke-linecap="round"/>
<path d="M83.6185 69.0722C84.6889 68.7154 85.5917 68.7868 86.7204 68.9398C88.3243 69.021 88.7505 71.2433 88.7631 72.3443C88.7631 74.2925 88.993 76.4668 88.3375 78.3021C88.1248 78.8979 87.4442 79.5947 86.796 79.749C85.1197 80.1482 83.3857 80.6853 81.6704 80.6853C80.8924 80.6853 80.6656 80.8512 80.337 80.2597C79.0191 77.8876 79.4824 73.3375 79.7412 71.9187C80 70.4999 82.6724 69.3876 83.6185 69.0722Z" fill="#F2F2F2" stroke="#9F9F9F" stroke-width="3" stroke-linecap="round"/>
<path d="M9.49525 51.9174C7.84054 51.8789 6.79647 50.9869 5.8638 49.7044C4.68358 48.4839 4.12373 45.3375 3.99133 43.9168C3.99133 42.6906 4.54509 41.9802 4.88028 40.8528C5.10488 40.0973 5.6288 39.4111 6.07185 38.7723C6.53231 38.1083 6.84096 37.3273 7.33908 36.6917C7.93227 35.9349 8.67943 36.0865 9.53308 36.0865C10.7454 36.0865 12.0999 36.6137 13.1834 37.1457C13.942 37.518 14.906 37.8542 15.6233 38.2994C16.6087 38.911 17.4525 39.6806 18.4226 40.3043C18.8618 40.5866 19.4625 41.165 19.4818 41.7417C19.5487 43.7508 19.1606 45.6075 17.7795 47.1511C17.2288 47.7665 16.2949 48.4997 15.907 49.1938C15.475 49.9669 14.8124 50.7079 14.0724 51.2365C13.2689 51.8104 13.1638 52.0876 12.1621 52.0876C11.2589 52.0876 10.3698 51.9377 9.49525 51.9174Z" fill="#F2F2F2" stroke="#9F9F9F" stroke-width="3" stroke-linecap="round"/>
<path d="M11.7299 30C11.7299 29.3288 11.7401 28.718 11.8435 28.0758C11.919 27.6065 12.1283 27.0315 11.8876 26.6327C11.7473 26.4001 11.676 26.0469 11.4775 25.8588C11.1903 25.5869 10.8406 25.3452 10.512 25.2C10.1452 25.0379 9.36866 24.8921 9.23424 24.1124C9.18485 23.8259 8.93397 23.3432 9.01654 23.0353C9.08113 22.7944 9.17429 22.2632 9.17429 22" stroke="#757575" stroke-width="3" stroke-linecap="round"/>
<path d="M9.45821 32.5832L9.87375 29.9449L13.5645 30.695C13.466 31.3206 13.491 31.9675 13.3915 32.5994C13.2037 33.792 13.0884 35.0232 12.979 36.2259C12.785 38.3595 13.0922 40.5456 12.758 42.6676C12.6074 43.6239 12.6231 44.6461 12.3011 45.5682C12.1472 46.0091 11.9522 46.4357 11.7988 46.8769C11.6949 47.1754 11.6248 47.5658 11.4105 47.8191C11.1856 48.085 10.0042 47.7305 9.70992 47.6669C8.83251 47.477 8.01625 47.3651 7.93526 46.4621C7.86193 45.6445 8.04655 44.8258 7.98 44.0061C7.93823 43.4917 7.96438 42.9913 7.96321 42.4781C7.95815 40.2632 8.45784 38.0605 8.81117 35.8852C8.99127 34.7764 9.28325 33.694 9.45821 32.5832Z" fill="#985E07" stroke="#684107" stroke-width="3" stroke-linecap="round"/>
<path d="M10.9365 3.54669C10.4162 4.45329 8.77005 6.43637 8.32975 7.41059C6.70684 11.0015 4 13.8289 4 17.7706C4 18.7508 6.46842 19.6499 7.05027 20.3521C9.6887 22.0638 13.4358 20.0684 15.4893 18.0237C17.1385 16.3816 14.3228 9.15755 13.6648 7.41059C13.2091 6.20066 12.6562 5.0042 12.2583 3.77166C11.9796 2.90832 11.4331 2.68143 10.9365 3.54669Z" fill="#B6B6B6" stroke="#757575" stroke-width="3" stroke-linecap="round"/>
<path d="M77.5686 92.1927C78.2738 92.1927 79.0055 92 79.7309 92L86.2176 92.0964C86.3244 92.3122 87.0263 92.1927 87.267 92.1927C87.7823 92.1927 88.1755 92.3665 88.6608 92.4818C89.1947 92.6088 89.7301 92.5345 90.2666 92.6318C90.5759 92.6878 91.207 92.7466 91.4431 92.9851C91.736 93.281 91.7367 93.8144 91.8936 94.163C92.101 94.6241 91.9413 95.4561 91.9413 95.9672C91.9413 96.7994 91.924 97.612 91.8459 98.4407C91.8151 98.7669 91.7707 99.5286 91.5385 99.7845C91.3153 100.03 90.6512 99.9987 90.362 99.9987C87.9547 99.9987 85.5574 99.8233 83.1544 99.8059C81.9584 99.7973 80.7676 99.7095 79.5719 99.7095C78.7472 99.7095 77.92 99.7485 77.1022 99.6346C76.3796 99.5339 75.5006 99.7044 74.8234 99.399C74.5526 99.2769 74.4492 99.103 74.2457 98.9386C73.8932 98.6537 74.1026 96.9486 74.1026 96.5347C74.1026 95.8992 73.9572 95.2821 74.0126 94.6394C74.0773 93.8876 74.2044 92.5592 75.0354 92.3105C75.8146 92.0773 76.7683 92.1927 77.5686 92.1927Z" fill="#D58712" stroke="#945D0B" stroke-width="3" stroke-linecap="round"/>
<path d="M97.1162 91.2926C97.6127 91.2294 98.0725 91.1987 98.5854 91.1987L104.831 91C105.177 91 105.504 91.0917 105.828 91.0994C106.124 91.1064 106.666 90.9851 106.902 91.1766C107.12 91.355 107.838 91.1975 108.127 91.276C108.439 91.3608 108.787 91.3242 109.103 91.4195C109.73 91.6089 110.269 91.3549 110.566 91.9936C110.896 92.703 110.978 93.5421 110.978 94.312V97.0609C110.978 97.4306 111.061 97.9115 110.902 98.2533C110.72 98.6447 110.312 98.6925 109.894 98.8053C108.682 99.1321 107.397 98.9488 106.115 98.9488H100.385C99.0607 98.9488 97.7439 98.9576 96.4331 98.8549C95.9714 98.8188 95.2077 98.512 95.067 98.0104C94.9132 97.4622 95.0724 96.9096 95.0724 96.3157C95.0724 95.9454 95.17 95.5987 95.17 95.2283C95.17 94.8654 95.0878 94.4538 95.132 94.1022C95.2263 93.3535 95.2676 92.6496 95.2676 91.8942C95.2676 91.6253 95.2368 91.4286 95.5386 91.3478C96.0502 91.2107 96.5976 91.3586 97.1162 91.2926Z" fill="#D58712" stroke="#945D0B" stroke-width="3" stroke-linecap="round"/>
<path d="M94.1079 89.2518C91.6642 89.2213 89.2664 89.1967 86.816 89.362L84.6647 89.0233C84.1904 89.0553 83.5844 88.9456 83.2075 88.6163C82.7926 88.2539 82.9088 87.3744 82.8748 86.8704C82.8378 86.3225 82.9687 85.6795 83.1028 85.1511C83.2386 84.6163 83.1253 84.0129 83.3249 83.5022C83.5733 82.8664 83.8374 82.6929 84.4002 82.3116C84.922 81.9581 85.4836 81.7118 86.1038 81.67C86.7153 81.6288 87.5133 81.432 88.0975 81.5839C88.7848 81.7627 89.7004 81.5138 90.4015 81.4769C91.0698 81.4417 91.8429 81.4312 92.5105 81.5067C93.1657 81.5807 93.9494 81.5279 94.6052 81.4837L96.1944 81.3765C96.919 81.3276 97.619 81.3772 98.3786 81.3259C98.9538 81.2871 100.911 81.1274 101.033 82.1144C101.208 83.5306 101.363 84.9613 101.418 86.3884C101.432 86.7399 101.391 87.2316 101.294 87.5686C101.241 87.7505 100.793 88.335 100.589 88.4331C99.7951 88.8143 98.9777 88.8069 98.104 88.8909C96.7836 89.018 95.4546 89.2686 94.1079 89.2518Z" fill="#D58712" stroke="#945D0B" stroke-width="3" stroke-linecap="round"/>
</svg>
