<svg width="114" height="109" viewBox="0 0 114 109" fill="none" xmlns="http://www.w3.org/2000/svg">
<path d="M97 73C99 73 102.895 72.8694 104.5 73.5C105.544 73.9099 104.09 80.8394 104.09 83" stroke="#404040" stroke-width="3" stroke-linecap="round"/>
<path d="M27.0391 43.4124C30.9278 45.1697 35.5925 50.5455 37.7308 52.3288C39.9154 56.5919 37.6569 56.7397 36.2546 56.2807C33.9112 55.2276 28.1311 53.563 24.5376 51.0153C20.9441 48.4676 17.7868 45.0629 18.2871 43.5423C18.7874 42.0217 23.1503 41.655 27.0391 43.4124Z" fill="white" stroke="#054169" stroke-width="3" stroke-linecap="round"/>
<path d="M37.9702 70.5999C37.9702 70.5999 38.2502 80.6899 39.0702 82.5999C39.8902 84.5099 43.7502 86.66 45.0702 87.7299C46.3902 88.7999 47.5502 89.19 47.7102 91.68C47.8702 94.17 48.2802 96.8 50.0302 96.46C51.7802 96.12 54.5102 94.16 54.3302 90.02C54.8002 88.79 57.5002 85.86 62.8902 86.93C68.2802 88 71.1502 87.6399 71.9902 88.3099C72.8302 88.9799 73.5402 90.99 73.9902 92.46C74.4402 93.93 74.4402 95.6 76.1402 96.02C76.8169 96.2677 77.5602 96.2635 78.234 96.0083C78.9079 95.753 79.4674 95.2638 79.8102 94.6299C80.5602 93.3099 80.3902 90.79 80.5602 89.55C80.7302 88.31 82.1702 87.1699 83.6102 85.8099C85.0502 84.4499 87.3102 81.2 87.6802 78.74C88.0502 76.28 88.2002 69.9399 88.2002 69.9399C88.2002 69.9399 62.0502 75.3399 37.9702 70.5999Z" fill="white"/>
<path d="M95.3256 61.5973C94.4489 57.0883 91.2913 55.0579 90.2827 53.4231C89.2837 57.0878 87.7072 65.1255 89.3927 67.9586C90.4475 69.5605 93.4798 77.2402 94.6664 75.968C95.853 74.6957 96.2023 66.1062 95.3256 61.5973Z" fill="white" stroke="#054169" stroke-width="3" stroke-linecap="round"/>
<path d="M37.8497 69.1101C37.8497 69.1101 37.8497 62 36.62 58.5C36.62 58.5 36.6196 55.5699 36.6198 54C37.7598 55.25 35.2997 48.8301 36.6197 47.5101C37.9397 46.1901 36.3797 45.7401 36.6197 42.8701C36.8597 40.0001 36.3197 30.5501 40.6197 26.7101C46.7791 21.2099 54.8047 18.2664 63.0597 18.4801C73.8797 18.5901 82.4297 23.0801 84.7197 25.2001C87.0098 27.3201 89.2497 29.6801 89.8797 31.9101C90.7669 34.4163 91.011 37.1051 90.5897 39.7301C89.9997 42.9301 90.7997 45.49 90.5897 47C90.3797 48.51 90.2698 51.4301 90.2698 51.4301C89.5997 57.5 89.8797 55.5 89.5997 60.8601C88.6797 63.5301 89.3198 66.8601 88.1698 68.3701C87.0198 69.8801 85.0898 70.0701 84.2298 70.3701C83.3698 70.6701 40.6698 75.4401 37.8298 69.0801" fill="white"/>
<path d="M39.8897 84.4799C40.1066 84.7758 40.3584 85.0444 40.6397 85.2799C42.1597 86.5599 44.4096 86.9799 45.8696 88.4599C46.8277 89.3162 47.4483 90.4865 47.6196 91.7599C47.7896 93.0999 47.4997 94.6199 48.3297 95.6799C49.3197 96.9499 51.4597 96.7199 52.5897 95.5799C53.6316 94.3364 54.1766 92.7513 54.1197 91.1299C54.2197 88.5199 55.4697 87.5999 58.0097 87.2999C61.669 86.8732 65.3693 86.9438 69.0097 87.5099C70.5497 87.7499 72.2496 88.1899 73.0896 89.5099C73.5532 90.4692 73.8314 91.5074 73.9097 92.5699C74.081 93.6927 74.5863 94.738 75.3597 95.5699C75.7548 95.982 76.2573 96.2752 76.8105 96.4166C77.3636 96.558 77.9453 96.5418 78.4897 96.3699C79.058 96.0907 79.5424 95.6661 79.8936 95.1392C80.2449 94.6123 80.4505 94.0019 80.4897 93.3699C80.5556 92.1175 80.5556 90.8624 80.4897 89.6099C80.4654 88.8547 80.6673 88.1095 81.0697 87.4699C81.6897 86.6199 82.6897 86.3899 83.5397 85.8699C84.3405 85.3317 85.0214 84.6338 85.5397 83.8199C86.6608 82.1304 89.8497 67 89.8497 56.0699C89.8497 50 91.1897 40.2599 90.7097 35.4599C89.5497 23.9299 74.8497 19.1599 64.9997 18.5999C54.6997 18.0099 40.4097 21.0999 37.8397 32.6599C36.8897 36.9599 36.7897 41.5299 36.3597 45.9099C36.1501 48.0469 37.3684 62.3223 37.3897 63.3499C37.8297 68.9899 38.283 74.6299 38.7497 80.2699C38.7406 81.7507 39.1347 83.206 39.8897 84.4799Z" stroke="#054169" stroke-width="3" stroke-miterlimit="10"/>
<path d="M91 74C87.5976 74.3934 86.9058 74.0307 86.5 76.2551C86.1492 78.1781 86 80.0687 86 82" stroke="#404040" stroke-width="3" stroke-linecap="round"/>
<path d="M38.71 70.98C54.7022 73.2459 70.9557 72.9081 86.8399 69.98L89.5 69" stroke="#054169" stroke-width="3" stroke-miterlimit="10"/>
<path d="M45.0701 53.0801C44.9881 53.6654 45.0968 54.2615 45.3801 54.7801C45.5415 55.0153 45.7449 55.2187 45.9801 55.3801C46.6464 55.8148 47.4068 56.0842 48.1982 56.1659C48.9895 56.2477 49.789 56.1394 50.5301 55.8501C50.8881 55.7337 51.2256 55.5616 51.5301 55.3401C51.8114 55.122 52.042 54.8454 52.2061 54.5295C52.3701 54.2135 52.4636 53.8657 52.4801 53.5101C52.6201 49.9801 45.3301 49.5301 45.0701 53.0801Z" fill="#EF7725"/>
<path d="M78.8802 52.0699C77.6402 51.3899 74.1702 50.96 74.1802 53.18C74.2251 53.7672 74.4935 54.3148 74.9302 54.71C76.0902 55.91 79.2602 57.2499 80.4002 55.2899C80.5486 54.9931 80.6208 54.664 80.6103 54.3324C80.5999 54.0007 80.507 53.6768 80.3402 53.3899C79.9864 52.8222 79.4806 52.3649 78.8802 52.0699Z" fill="#EF7725"/>
<path d="M53.5801 41.35C53.0502 41.0531 52.4596 40.8808 51.8532 40.8461C51.2467 40.8115 50.6404 40.9154 50.0801 41.15C49.3097 41.5309 48.697 42.1694 48.3481 42.9548C47.9992 43.7403 47.9363 44.623 48.1701 45.45C48.3744 45.9535 48.6991 46.3991 49.1158 46.7478C49.5325 47.0965 50.0285 47.3376 50.5601 47.45C51.3772 47.6629 52.2384 47.6351 53.0401 47.37C53.587 47.1652 54.071 46.8213 54.4446 46.3724C54.8181 45.9235 55.0681 45.385 55.1701 44.81C55.3386 44.0959 55.2501 43.3452 54.9201 42.69C54.6169 42.1197 54.1503 41.6531 53.5801 41.35Z" fill="#054169"/>
<path d="M76.9701 42.3699C76.1559 42.3851 75.3577 42.5989 74.6449 42.9928C73.9321 43.3866 73.3263 43.9486 72.8801 44.6299C72.6373 45.0452 72.487 45.5081 72.4396 45.9868C72.3922 46.4655 72.4488 46.9489 72.6055 47.4037C72.7621 47.8586 73.0152 48.2742 73.3474 48.6222C73.6796 48.9702 74.083 49.2423 74.5301 49.4199C75.4329 49.7005 76.4052 49.6581 77.2801 49.2999C78.0451 49.0242 78.7079 48.5219 79.1801 47.8599C79.4929 47.365 79.691 46.8065 79.7602 46.2252C79.8294 45.6438 79.7679 45.0544 79.5801 44.4999C79.4124 43.9241 79.095 43.403 78.6601 42.9899C78.1904 42.5855 77.5899 42.3652 76.9701 42.3699Z" fill="#054169"/>
<path d="M59.6701 52.33C60.4432 53.2677 61.4934 53.9363 62.6701 54.24C63.4665 54.4571 64.302 54.4898 65.1129 54.3356C65.9239 54.1814 66.689 53.8443 67.3501 53.35C68.4601 52.44 69.5701 50.35 68.4601 49.06C68.3049 48.864 68.0864 48.728 67.842 48.6751C67.5977 48.6222 67.3425 48.6557 67.1201 48.77C66.6401 49.08 66.6201 49.77 66.4901 50.31C66.3123 50.9265 65.9616 51.4792 65.4796 51.9027C64.9976 52.3262 64.4044 52.6029 63.7701 52.7C63.0189 52.8042 62.2535 52.7084 61.5512 52.4222C60.8489 52.136 60.2345 51.6696 59.7701 51.07C59.6263 50.8586 59.5025 50.6343 59.4001 50.4C59.3001 50.19 59.0701 49.21 58.7301 49.31C58.1101 49.51 59.0501 51.31 59.2501 51.65C59.3736 51.8865 59.5139 52.1137 59.6701 52.33Z" fill="#054169"/>
<path d="M21.924 35.8003L22.2385 25.0049L25.9798 25.7884C25.9052 28.3481 25.9558 30.9192 25.8805 33.5048C25.7383 38.3847 25.6706 43.3755 25.6077 48.2486C25.4962 56.8937 25.8908 65.4479 25.6379 74.1306C25.5239 78.0438 25.5797 82.1205 25.2921 85.9994C25.1545 87.8545 24.9752 89.6767 24.8381 91.5321C24.7454 92.7879 24.6901 94.3906 24.4846 95.5314C24.2688 96.7294 23.0667 96.0214 22.7683 95.9435C21.8784 95.7112 21.0531 95.7538 20.9363 92.1929C20.8305 88.9684 20.984 85.5852 20.885 82.3485C20.8228 80.3171 20.8295 78.3012 20.8082 76.2508C20.7163 67.4001 21.1325 58.2953 21.4027 49.3877C21.5403 44.8474 21.7916 40.3456 21.924 35.8003Z" fill="#ACACAC" stroke="#717171" stroke-width="3" stroke-linecap="round"/>
<path d="M23.9872 24.6836C24.0898 24.1579 24.1231 23.646 24.297 23.1435C24.4081 22.8226 24.395 22.4977 24.4838 22.1867C24.5285 22.0302 24.7189 21.8217 24.8803 21.7948C25.7812 21.6446 26.7488 21.731 27.6597 21.731C29.2481 21.731 30.9833 22.0523 32.5534 21.7128C33.7731 21.4491 35.2894 21.5978 36.4081 21.0384C38.0368 20.2241 38.896 18.5525 39.3653 16.892C39.9064 14.9774 40.2294 13.138 39.9804 11.1463C39.9288 10.7336 39.8229 9.54735 39.1602 9.51054C38.3212 9.46392 37.5531 9.26449 36.6997 9.26449" stroke="#404040" stroke-width="3" stroke-linecap="round"/>
<path d="M35.2234 8.92731C35.2234 7.27587 35.3055 6.0001 35.3055 3.8514C35.3055 2.93258 32.1888 2.75775 30.6305 2.78518C27.0103 2.78518 23.3817 3.14116 19.7679 2.73962C17.0429 2.43684 14.2433 2.21107 11.5024 2.21107C8.97489 2.21107 5.57141 2.15327 3.23699 3.25906C2.11977 3.78826 2.49884 7.41553 2.49884 8.36231C2.49884 9.59058 2.43081 11.2137 3.15497 12.2809C5.88391 16.3025 26.7754 14.3403 31.2639 14.0944C32.583 14.0221 34.1185 14.1484 34.9409 12.9735C35.6451 11.9676 35.2234 10.0653 35.2234 8.92731Z" fill="white" stroke="#404040" stroke-width="3" stroke-linecap="round"/>
<path d="M103.851 95.3114C103.851 92.6814 104.377 90.1513 104.417 87.5289H95.4998C90.4998 87.5289 84.8899 86.6799 84.8899 86.6799C84.8899 87.9146 85.1729 89.4011 85.1729 90.7834C85.1729 96.2866 85.1729 97.9999 90.8329 98.503C93.88 98.7739 103.851 100.698 103.851 95.3114Z" fill="white" stroke="#404040" stroke-width="3" stroke-linecap="round"/>
<path d="M81.2482 8.61352C87.5986 11.3719 81.9671 20.5747 82.4648 22.9792L65.1398 18.4792L45.2597 24.1617C45.2143 21.8118 43.6875 15.8758 45.0324 12.4124C46.3774 8.94891 44.7414 7.60412 51.9845 6.84435C59.2277 6.08458 74.8977 5.85513 81.2482 8.61352Z" fill="white" stroke="#404040" stroke-width="3" stroke-linecap="round"/>
<path d="M61.6744 16.7914C54.6036 18.4039 48.0495 22.5931 43.777 24.5435C42.3884 25.2249 43.7763 27.8407 44.9013 26.8575C49.6798 25.3699 57.1209 21.6509 65.3285 21.4195C73.5362 21.1881 78.6519 26.6757 82.4747 27.7005C82.5495 27.8743 85.8039 28.3874 84.4422 26.5435C83.0806 24.6996 80.2197 20.4315 75.6662 18.4811C71.1126 16.5306 68.7453 15.179 61.6744 16.7914Z" fill="white" stroke="#404040" stroke-width="3" stroke-linecap="round"/>
<path d="M97.2635 81.1322C84.4425 79.9259 79.2348 88.2658 93.6294 88.9401C105.963 89.5179 109.885 82.3198 97.2635 81.1322Z" fill="#FFC9FA" stroke="#BE99BA" stroke-width="3" stroke-linecap="round"/>
</svg>
