<svg width="106" height="109" viewBox="0 0 106 109" fill="none" xmlns="http://www.w3.org/2000/svg">
<path d="M85.3257 61.5972C84.449 57.0882 81.2914 55.0579 80.2828 53.423C79.2838 57.0877 77.7073 65.1254 79.3929 67.9585C80.4476 69.5604 83.4799 77.2402 84.6665 75.9679C85.8531 74.6956 86.2025 66.1062 85.3257 61.5972Z" fill="white" stroke="#054169" stroke-width="3" stroke-linecap="round"/>
<path d="M17.0391 43.4124C20.9278 45.1697 25.5925 50.5455 27.7308 52.3288C29.9154 56.5919 27.6569 56.7397 26.2546 56.2807C23.9112 55.2276 18.1311 53.563 14.5376 51.0153C10.9441 48.4676 7.78681 45.0629 8.28709 43.5423C8.78738 42.0217 13.1503 41.655 17.0391 43.4124Z" fill="white" stroke="#054169" stroke-width="3" stroke-linecap="round"/>
<path d="M27.9702 70.5999C27.9702 70.5999 28.2502 80.6899 29.0702 82.5999C29.8902 84.5099 33.7502 86.66 35.0702 87.7299C36.3902 88.7999 37.5502 89.19 37.7102 91.68C37.8702 94.17 38.2802 96.8 40.0302 96.46C41.7802 96.12 44.5102 94.16 44.3302 90.02C44.8002 88.79 47.5002 85.86 52.8902 86.93C58.2802 88 61.1502 87.6399 61.9902 88.3099C62.8302 88.9799 63.5402 90.99 63.9902 92.46C64.4402 93.93 64.4402 95.6 66.1402 96.02C66.8169 96.2677 67.5602 96.2635 68.234 96.0083C68.9079 95.753 69.4674 95.2638 69.8102 94.6299C70.5602 93.3099 70.3902 90.79 70.5602 89.55C70.7302 88.31 72.1702 87.1699 73.6102 85.8099C75.0502 84.4499 77.3102 81.2 77.6802 78.74C78.0502 76.28 78.2002 69.9399 78.2002 69.9399C78.2002 69.9399 52.0502 75.3399 27.9702 70.5999Z" fill="#EF7725"/>
<path d="M27.8497 69.1101C27.8497 69.1101 27.8497 62 26.62 58.5C26.62 58.5 26.6196 55.5699 26.6198 54C27.7598 55.25 25.2997 48.8301 26.6197 47.5101C27.9397 46.1901 26.3797 45.7401 26.6197 42.8701C26.8597 40.0001 26.3197 30.5501 30.6197 26.7101C36.7791 21.2099 44.8047 18.2664 53.0597 18.4801C63.8797 18.5901 72.4297 23.0801 74.7197 25.2001C77.0098 27.3201 79.2497 29.6801 79.8797 31.9101C80.7669 34.4163 81.011 37.1051 80.5897 39.7301C79.9997 42.9301 80.7997 45.49 80.5897 47C80.3797 48.51 80.2698 51.4301 80.2698 51.4301C79.5997 57.5 79.8797 55.5 79.5997 60.8601C78.6797 63.5301 79.3198 66.8601 78.1698 68.3701C77.0198 69.8801 75.0898 70.0701 74.2298 70.3701C73.3698 70.6701 30.6698 75.4401 27.8298 69.0801" fill="white"/>
<path d="M29.8897 84.4799C30.1066 84.7758 30.3584 85.0444 30.6397 85.2799C32.1597 86.5599 34.4096 86.9799 35.8696 88.4599C36.8277 89.3162 37.4483 90.4865 37.6196 91.7599C37.7896 93.0999 37.4997 94.6199 38.3297 95.6799C39.3197 96.9499 41.4597 96.7199 42.5897 95.5799C43.6316 94.3364 44.1766 92.7513 44.1197 91.1299C44.2197 88.5199 45.4697 87.5999 48.0097 87.2999C51.669 86.8732 55.3693 86.9438 59.0097 87.5099C60.5497 87.7499 62.2496 88.1899 63.0896 89.5099C63.5532 90.4692 63.8314 91.5074 63.9097 92.5699C64.081 93.6927 64.5863 94.738 65.3597 95.5699C65.7548 95.982 66.2573 96.2752 66.8105 96.4166C67.3636 96.558 67.9453 96.5418 68.4897 96.3699C69.058 96.0907 69.5424 95.6661 69.8936 95.1392C70.2449 94.6123 70.4505 94.0019 70.4897 93.3699C70.5556 92.1175 70.5556 90.8624 70.4897 89.6099C70.4654 88.8547 70.6673 88.1095 71.0697 87.4699C71.6897 86.6199 72.6897 86.3899 73.5397 85.8699C74.3405 85.3317 75.0214 84.6338 75.5397 83.8199C76.6608 82.1304 79.8497 67 79.8497 56.0699C79.8497 50 81.1897 40.2599 80.7097 35.4599C79.5497 23.9299 64.8497 19.1599 54.9997 18.5999C44.6997 18.0099 30.4097 21.0999 27.8397 32.6599C26.8897 36.9599 26.7897 41.5299 26.3597 45.9099C26.1501 48.0469 27.3684 62.3223 27.3897 63.3499C27.8297 68.9899 28.283 74.6299 28.7497 80.2699C28.7406 81.7507 29.1347 83.206 29.8897 84.4799Z" stroke="#054169" stroke-width="3" stroke-miterlimit="10"/>
<path d="M28.71 70.98C44.7022 73.2459 60.9557 72.9081 76.8399 69.98L79.5 69" stroke="#054169" stroke-width="3" stroke-miterlimit="10"/>
<path d="M35.0701 53.0801C34.9881 53.6654 35.0968 54.2615 35.3801 54.7801C35.5415 55.0153 35.7449 55.2187 35.9801 55.3801C36.6464 55.8148 37.4068 56.0842 38.1982 56.1659C38.9895 56.2477 39.789 56.1394 40.5301 55.8501C40.8881 55.7337 41.2256 55.5616 41.5301 55.3401C41.8114 55.122 42.042 54.8454 42.2061 54.5295C42.3701 54.2135 42.4636 53.8657 42.4801 53.5101C42.6201 49.9801 35.3301 49.5301 35.0701 53.0801Z" fill="#EF7725"/>
<path d="M68.8802 52.0699C67.6402 51.3899 64.1702 50.96 64.1802 53.18C64.2251 53.7672 64.4935 54.3148 64.9302 54.71C66.0902 55.91 69.2602 57.2499 70.4002 55.2899C70.5486 54.9931 70.6208 54.664 70.6103 54.3324C70.5999 54.0007 70.507 53.6768 70.3402 53.3899C69.9864 52.8222 69.4806 52.3649 68.8802 52.0699Z" fill="#EF7725"/>
<path d="M43.5801 41.35C43.0502 41.0531 42.4596 40.8808 41.8532 40.8461C41.2467 40.8115 40.6404 40.9154 40.0801 41.15C39.3097 41.5309 38.697 42.1694 38.3481 42.9548C37.9992 43.7403 37.9363 44.623 38.1701 45.45C38.3744 45.9535 38.6991 46.3991 39.1158 46.7478C39.5325 47.0965 40.0285 47.3376 40.5601 47.45C41.3772 47.6629 42.2384 47.6351 43.0401 47.37C43.587 47.1652 44.071 46.8213 44.4446 46.3724C44.8181 45.9235 45.0681 45.385 45.1701 44.81C45.3386 44.0959 45.2501 43.3452 44.9201 42.69C44.6169 42.1197 44.1503 41.6531 43.5801 41.35Z" fill="#054169"/>
<path d="M66.9701 42.3699C66.1559 42.3851 65.3577 42.5989 64.6449 42.9928C63.9321 43.3866 63.3263 43.9486 62.8801 44.6299C62.6373 45.0452 62.487 45.5081 62.4396 45.9868C62.3922 46.4655 62.4488 46.9489 62.6055 47.4037C62.7621 47.8586 63.0152 48.2742 63.3474 48.6222C63.6796 48.9702 64.083 49.2423 64.5301 49.4199C65.4329 49.7005 66.4052 49.6581 67.2801 49.2999C68.0451 49.0242 68.7079 48.5219 69.1801 47.8599C69.4929 47.365 69.691 46.8065 69.7602 46.2252C69.8294 45.6438 69.7679 45.0544 69.5801 44.4999C69.4124 43.9241 69.095 43.403 68.6601 42.9899C68.1904 42.5855 67.5899 42.3652 66.9701 42.3699Z" fill="#054169"/>
<path d="M49.6701 52.33C50.4432 53.2677 51.4934 53.9363 52.6701 54.24C53.4665 54.4571 54.302 54.4898 55.1129 54.3356C55.9239 54.1814 56.689 53.8443 57.3501 53.35C58.4601 52.44 59.5701 50.35 58.4601 49.06C58.3049 48.864 58.0864 48.728 57.842 48.6751C57.5977 48.6222 57.3425 48.6557 57.1201 48.77C56.6401 49.08 56.6201 49.77 56.4901 50.31C56.3123 50.9265 55.9616 51.4792 55.4796 51.9027C54.9976 52.3262 54.4044 52.6029 53.7701 52.7C53.0189 52.8042 52.2535 52.7084 51.5512 52.4222C50.8489 52.136 50.2345 51.6696 49.7701 51.07C49.6263 50.8586 49.5025 50.6343 49.4001 50.4C49.3001 50.19 49.0701 49.21 48.7301 49.31C48.1101 49.51 49.0501 51.31 49.2501 51.65C49.3736 51.8865 49.5139 52.1137 49.6701 52.33Z" fill="#054169"/>
<path d="M33.9155 71.6962C34.1599 67.9994 34.0746 64.3987 33.4969 60.7396C33.0577 57.9583 32.7127 55.1322 31.4969 52.5604C30.8063 51.0995 30.1835 49.7653 29.1847 48.494C28.8148 48.0232 28.0723 47.6911 27.8159 47.1784" stroke="#054169" stroke-width="3" stroke-linecap="round"/>
<path d="M71.948 70.0219C71.9756 67.9784 72.48 65.9635 72.6656 63.9223C72.8092 62.3421 73.09 60.6671 73.5294 59.1383C74.1947 56.8229 74.1507 54.2064 75.5227 52.1484C76.2316 51.085 76.8485 49.6685 77.8682 48.8528C78.4524 48.3854 78.8055 47.517 79.4828 47.1784" stroke="#054169" stroke-width="3" stroke-linecap="round"/>
<path d="M22.6221 28.9967C22.5005 27.9349 21.2716 18.8868 20.8884 17.8722L20.3194 15.4512C20.2798 15.106 20.2327 14.7753 19.9556 14.5036C19.7081 14.2608 19.5811 13.972 19.3706 13.7098C19.1279 13.4076 18.6099 13.1566 18.1877 13.0712C17.7186 12.9763 17.2831 12.7582 16.7996 12.6922C15.8997 12.5695 15.0447 12.4662 14.1163 12.497C12.7255 12.5431 11.4002 12.6894 10.0425 13.0152C9.66347 13.1061 8.91381 13.1696 8.68599 13.4774C8.58774 13.6101 8.52495 13.806 8.52225 13.9571C8.51733 14.2328 8.53743 14.5153 8.49042 14.7927C8.44337 15.0703 8.49637 15.3394 8.52782 15.6139C8.55833 15.8801 8.56243 16.1567 8.65572 16.4119C8.80338 16.8159 8.90375 17.1783 9.40396 17.3926C9.74953 17.5407 10.2485 17.4635 10.6203 17.3865C11.074 17.2927 11.5311 17.2121 11.9866 17.1159C12.3821 17.0325 12.7904 17.001 13.1872 16.919C13.4162 16.8716 13.6359 16.8965 13.8675 16.8828C14.1948 16.8633 14.5758 16.8124 14.8742 16.92C15.0654 16.9889 15.0749 17.3509 15.1151 17.5027C15.1974 17.8127 15.2329 18.1419 15.2694 18.4599C15.296 18.6927 15.3273 18.9333 15.2959 19.1683C15.2705 19.3578 15.2788 19.5473 15.2699 19.7366C15.2644 19.8528 15.2256 19.9584 15.2357 20.0746C15.2521 20.2631 15.2368 20.4678 15.2215 20.6576C15.1972 20.9587 16.3177 29.2703 16.3089 29.5707C16.2878 30.299 16.292 31.0608 16.4937 31.7659C16.6163 32.1949 16.8412 32.7228 17.2312 33.0417C17.4601 33.2289 17.7727 33.333 18.0352 33.4844C18.7103 33.8738 19.4535 33.8404 20.2763 33.7962C20.8617 33.7647 21.1827 33.5475 21.5639 33.1925C21.9035 32.8762 22.2024 32.5344 22.3333 32.1311C22.4541 31.7587 22.5509 31.387 22.6321 31.0095C22.7761 30.3399 22.6994 29.6712 22.6235 29.0085L22.6221 28.9967Z" fill="#B6B6B6" stroke="#757575" stroke-width="3" stroke-linecap="round"/>
<path d="M9.87514 42.0379C10.0056 44.4816 10.3722 46.9822 10.8552 49.3797L11.7234 55.3412C11.7696 55.7442 11.9522 56.6177 12.3478 56.8427C12.628 57.002 12.8346 57.2323 13.0555 57.4556C13.5824 57.9881 14.5469 57.6714 15.0605 57.2772C15.8752 56.6521 16.6676 56.0215 17.1345 55.0758L17.1429 55.0588C17.33 54.6799 17.5181 54.2989 17.5807 53.8783C17.663 53.3254 17.5841 52.7864 17.5209 52.235C17.4092 51.2597 17.1744 50.2764 16.9554 49.3182C16.7122 48.2547 16.5543 47.1906 16.4051 46.1091C16.2712 45.1382 16.2283 44.1491 16.1125 43.1739C15.9212 41.5637 15.4521 40.0178 15.3338 38.3974C15.2548 37.3146 15.3571 36.228 15.4138 35.147C15.4512 34.4338 15.3392 33.7307 15.3216 33.019C15.3112 32.5995 15.3166 32.1907 15.2688 31.7733L15.0481 29.8477C14.994 29.3752 14.8581 28.7389 15.0986 28.292C15.2624 27.9876 15.8173 27.9626 16.1153 27.9004C16.9646 27.7232 22.4185 27.1688 23.2826 27.1254C23.739 27.1025 24.1827 27.0503 24.6414 27.0494C25.1608 27.0483 25.6596 27.0645 26.1741 26.9663C26.7301 26.8602 27.7642 26.659 28.0478 26.091C28.1662 25.8539 28.0965 25.6186 28.067 25.3614C28.0048 24.818 27.9829 24.2504 27.8231 23.7263C27.5222 22.739 27.0913 21.8067 26.585 20.9071C26.3722 20.5289 25.6849 20.478 25.3227 20.3886C24.8433 20.2704 24.2425 20.0608 23.7396 20.0996C22.0431 20.2306 15.7912 21.0652 14.1191 21.3588C12.9688 21.5608 11.8353 21.7539 10.7301 22.1327C10.0641 22.361 9.35895 22.6622 8.92797 23.2517C8.57687 23.7319 8.49102 24.3473 8.48026 24.93L8.48001 24.9438C8.46621 25.6909 8.45261 26.4274 8.49586 27.1748C8.62111 29.3388 8.89744 31.4868 9.1444 33.642C9.46488 36.4388 9.72497 39.226 9.87514 42.0379Z" fill="#F55252" stroke="#A23535" stroke-width="3" stroke-linecap="round"/>
<path d="M95.8628 82.9228L95.8628 86.1305L92.7283 85.9303C92.7283 85.1697 92.6238 84.4068 92.6238 83.6385C92.6238 82.1885 92.5591 80.7062 92.4932 79.2588C92.3764 76.6912 91.8402 74.155 91.8402 71.575C91.8402 70.4122 91.6948 69.2023 91.8402 68.0483C91.9098 67.4963 92.0149 66.9538 92.084 66.4017C92.1308 66.0281 92.1379 65.5518 92.2814 65.2113C92.432 64.8538 93.4502 65.0536 93.7006 65.0741C94.4472 65.1354 95.1334 65.1156 95.3171 66.1718C95.4835 67.1282 95.4376 68.1339 95.5987 69.094C95.6997 69.6966 95.743 70.2952 95.8105 70.9037C96.1018 73.5306 95.9761 76.2374 95.9672 78.8843C95.9627 80.2334 95.8628 81.5722 95.8628 82.9228Z" fill="#985E07" stroke="#684107" stroke-width="3" stroke-linecap="round"/>
<path d="M95.9102 86.4427C96.7691 87.1426 96.5913 88.845 96.7616 89.4456C97.8414 89.9812 101.066 90.7019 102.161 92.1237C103.256 93.5456 105.312 95.6156 102.235 96.5549C99.1586 97.4943 89.8649 97.6636 86.7776 96.8204C83.6904 95.9772 85.761 93.8324 86.7988 92.3388C87.8365 90.8452 90.8329 90.6308 91.9665 89.3522C93.1002 88.0736 91.6783 86.5278 92.467 85.9459C93.2557 85.364 95.0513 85.7428 95.9102 86.4427Z" fill="#CB2D2D" stroke="#8F2424" stroke-width="3" stroke-linecap="round"/>
</svg>
